<?xml version="1.0" encoding="utf-8"?>
<!-- Generator: Adobe Illustrator 17.1.0, SVG Export Plug-In . SVG Version: 6.00 Build 0)  -->
<!DOCTYPE svg PUBLIC "-//W3C//DTD SVG 1.1//EN" "http://www.w3.org/Graphics/SVG/1.1/DTD/svg11.dtd">
<svg version="1.1" xmlns="http://www.w3.org/2000/svg" xmlns:xlink="http://www.w3.org/1999/xlink" x="0px" y="0px"
	 viewBox="0 0 3644.5 3813.8" enable-background="new 0 0 3644.5 3813.8" xml:space="preserve">
<g id="Background" display="none">
</g>
<g id="Objects">
	<path fill="#F69A9C" d="M3520.4,464.3c-61.4,3.1-89.1,55.1-129.8,91.5c-6-62-21.3-125.4-76-162.6c-52.8-35.9-130.6-25.5-171.4,23.9
		c-42.2,51.1-39.4,129.9,8.3,176.6c51.6,50.5,141.8,59.6,205.5,28.4c2.1-0.2,4.1-0.5,6.2-1c11.2,19.9,35.8,35.4,54.4,43.7
		c28,12.5,58.8,19.5,89.6,19.2c65.3-0.4,127.1-40.4,127.8-111.1C3635.6,511.2,3581.9,461.2,3520.4,464.3z"/>
	<path fill="#F69A9C" d="M3484.5,732.6c-28.2-44.9-64.3-82.3-106.3-114.3c-7-5.4-15.9-6.5-24.4-4.8c-1.7-0.4-3.4-0.7-5.2-0.8
		c-3.3-1.9-7.1-3.2-11.3-3.5c-47.2-3.1-100.8,21.6-138,49c-37.9,28-86.6,73.5-56.8,124.8c30.9,53.1,87.9,21.4,124.3-5.7
		c24.9-18.5,47.1-39.8,66.4-63.7c9.6,26.2,23,51.3,36,71.7c23.7,37.3,71.8,114.1,125,82.9C3546.1,838,3506.8,768.1,3484.5,732.6z"/>
	<path fill="#3C3C3B" d="M3606,574.6c-2.2-53.8-47-97.7-101.9-92.6c-30.6,2.9-55.4,22.4-77.6,42c-25.2,22.3-47.9,47.2-67.3,74.6
		c2.6-32.1,0.5-64-6.1-95.8c-5.5-26.5-12.9-54.6-30.7-75.8c-37.7-44.8-104.9-31-139.1,10.4c-36.6,44.4-40.8,111,2.7,152.2
		c32,30.3,83.6,43.1,128.8,35.6c-19.4,8.2-38.7,16.5-58,25c-25.3,11.1-53,20.9-75.1,37.9c-29.6,22.7-49.5,71.8-14,99.3
		c34.7,26.8,79.3,5,105.1-22.7c31.3-33.6,60.2-77.4,74.4-122.7c1.7,37.5,8.9,74.7,23.4,109.4c9.3,22.3,21.5,43.3,37,61.9
		c11.4,13.7,26.7,32.6,45.8,34.5c38.5,3.8,41.5-49.9,38.4-75.9c-4-33.5-18.1-64.6-39.8-89.7c20.6,5.9,42.5,7.3,63.5,2.7
		C3566.5,673.9,3608.2,628.1,3606,574.6z M3200.8,582.8c-43.3-36.8-39.6-100.6-2.5-140.7c39.8-43,104.1-36.3,128.2,18.5
		c19.8,45.1,23.1,97.9,20.8,146.6C3301.3,622.5,3237.8,614.2,3200.8,582.8z M3181.8,781.2c-24.4-12.6-24.1-41.9-11.2-62.7
		c12.8-20.6,35.6-31.6,57-41.4c38.9-17.7,78.1-34.9,117-52.7c-15.9,36.3-35,70.8-58.4,103C3263.7,758.6,3225.5,803.8,3181.8,781.2z
		 M3477.4,763.8c3.2,17.1,5,37.6-1.7,54.1c-12.7,31.2-39.4,7.5-53.1-8c-46.2-52.3-62-122.4-67.7-190.3c0.7-0.3,1.3-0.6,2-0.9
		c1.2-0.6,2-1.4,2.5-2.3c19.4,17.3,36.2,36.5,57.7,50.4c0.4,0.9,1,1.7,1.9,2.5C3449.3,692.7,3470.4,725.9,3477.4,763.8z
		 M3502.6,672.8c-25.7,3.3-52.2-3.2-74.6-15.8c-24-13.5-41.1-35.3-61.8-53.1c-0.2-0.1-0.3-0.2-0.5-0.4c14.7-17.2,30-33.9,46.4-49.6
		c20-19,42.9-41.3,68.7-52.2c53.5-22.8,109.4,17.6,111.3,74C3593.8,626.3,3550.8,666.7,3502.6,672.8z"/>
	<path fill="#3C3C3B" d="M3368.2,420.8c-4.3-3.9-9.9,0.9-8.7,5.9c3.4,13.8,12.9,25.2,17.7,38.6c5.7,16,7.6,32.8,0.9,48.8
		c-2.4,5.7,5.7,9.8,8.7,4.3C3403.4,488.5,3393.4,443.6,3368.2,420.8z"/>
	<path fill="#3C3C3B" d="M3489.8,443c-46.2-17.2-75.8,41.6-87.4,75.5c-1.9,5.5,5.9,9.7,8.3,4.1c16.2-37.6,33.5-69.1,77.9-73.2
		C3491.7,449.1,3493.1,444.2,3489.8,443z"/>
	<path fill="#3C3C3B" d="M3327.6,579.7c-3.9-30.8-8.8-62.4-15.7-92.7c-3.7-16.3-9.9-31.4-25-38.4c-0.6-0.6-1.4-1.1-2.3-1.3
		c-0.7-0.2-1.3-0.2-2-0.4c-0.2-0.1-0.3-0.1-0.5-0.2c-0.3-0.1-0.7-0.1-1-0.1c-25.6-3.9-41.9,23.3-35.4,45.1c-5.8-1.8-12.3-1.7-18,0.4
		c-16.4,6.1-22.4,25.6-19,41.6c10,46.3,74.3,65.4,114.5,55.7c2.4-0.6,2.7-2.8,1.8-4.6C3326.8,583.8,3327.9,582.1,3327.6,579.7z
		 M3246,562.8c-12.1-8.3-24.8-19.9-27.1-35.3c-3.4-22.8,20.9-35.5,36.8-18.5c1.1,1.2,2.4,1,3.4,0.2c3.7,0.7,6.8-3.9,3.6-7.3
		c-7.6-8.2-10.7-21.5-4.9-31.5c5.4-9.3,14.6-11.7,24.4-12.1c16,14.1,17.9,36.1,21.4,56.5c3.9,22.6,7.4,45.2,12.3,67.6
		c0,0.2,0.1,0.4,0.2,0.5C3291.1,582.2,3267.1,577.2,3246,562.8z"/>
	<path fill="#3C3C3B" d="M3535.9,583.1c4.1-3.7,7.2-8.3,9-13.3c2.8-5.3,4-11,2.6-16.5c1.9-0.9,3.1-3,2.2-5.6
		c-9.4-26.4-42.2-33.8-66.9-26.9c-35.4,10-64.5,43.8-83,73.9c-1.4,2.2,0.5,4.1,2.6,4.3c-1,1.8-1.1,4.2,0.8,5.8
		c17.6,15.3,112.4,74.4,133.9,39.1C3552.5,628.7,3554.8,595.7,3535.9,583.1z M3408.2,597.1c-0.6-0.3-1.1-0.5-1.7-0.6
		c32.7-31.4,87.5-96.2,130.9-48.9c0.4,4.2-0.2,8.5-1.6,12.5c-0.7,1.4-1.4,2.7-2.2,4.1c-3.5,5.6-8.4,10.1-14.4,12.9
		c-7,3.3-4.7,13.3,2,13.4c6.6,6.7,12.3,11.7,13.8,21.7c0.9,6.5,0.1,12.8-2.8,18.4c-0.1,0.1-0.3,0.1-0.4,0.1
		C3493.9,650.4,3441.6,616.1,3408.2,597.1z"/>
	<path fill="#F69A9C" d="M2783.9,21.8c-36.3-33.7-94.5-26-128.7,6.7c-30,28.7-38.3,71.3-36,112.1c-23.7-26.4-55.4-49.8-85.6-60.5
		c-46.8-16.7-97.7,8-109.1,57.2c-10.5,45.3,16.3,88.5,57.6,106.2c45.5,19.6,94.3,7.6,137.7-11.6c3.8-1.7,7-3.8,9.6-6.2
		c54.5-5.6,115.4-21.7,153.2-64.1C2816.7,123.2,2824.1,59.1,2783.9,21.8z"/>
	<path fill="#F69A9C" d="M2739.3,193.5c-33.3-4.3-97.3-13.2-119.5,18.5c-2.8,0.3-5.5,1-8.1,2.3c-16.6,2.5-31.6,14.5-32.7,32.7
		c-30.4,43.2-48.6,110.7-0.9,135.9c37.5,19.7,65.2-11.5,76.2-44.3c7.3-21.7,9.1-44.9,6.3-67.5c2.1-0.1,4.3-0.2,6.4-0.4
		c22.1,14.6,46.9,25.8,71.3,34c37.1,12.6,86.2,2.8,86-45.9C2824.1,211.3,2777.4,198.4,2739.3,193.5z"/>
	<path fill="#3C3C3B" d="M2762.1,52.3c-24.5-30.1-69.3-36.2-98.8-9.6c-16.4,14.8-22.3,36.8-26.7,57.8c-5,23.7-7.3,47.9-6.8,72.2
		c-12.4-19.7-27.3-37.2-44.9-52.7c-14.6-12.9-31-26-50.4-30.6c-41.1-9.7-74,27.3-75.9,66c-2,41.5,24.3,81.8,67.2,86.8
		c31.6,3.7,66.9-11.1,89.8-35c-7.7,13.1-15.3,26.2-22.8,39.5c-9.8,17.3-21.7,34.9-27.1,54.3c-7.3,25.9,2.4,62.9,34.7,63.4
		c31.6,0.5,48-31.3,51-58.4c3.6-32.9,1.4-70.7-9.9-103c17.1,20.9,37.4,39.3,60.7,53.1c15,8.9,31.1,15.8,48.1,19.8
		c12.5,3,29.5,7.3,41.3,0.2c23.9-14.4,2.5-46.7-10.5-60.4c-16.7-17.6-38.3-29.5-61.7-34.7c14.5-5.5,27.7-14.1,37.9-25.8
		C2782.1,126.7,2786.4,82.2,2762.1,52.3z M2531.4,231.8c-40.9-2.6-66.3-41.1-62.1-80.3c4.5-42.1,44.5-65.9,82.1-44.6
		c30.9,17.5,55.6,46.6,75.3,75.8C2606.6,211.4,2566.3,233.9,2531.4,231.8z M2606,354.6c-19.6,3.2-32-13.8-33.5-31.4
		c-1.5-17.4,7-33.7,15.1-48.5c14.9-27,30.1-53.9,44.9-80.9c6.4,27.9,10.3,56,10.7,84.7C2643.6,306.2,2641,348.8,2606,354.6z
		 M2769.4,217c9.2,8.5,19.1,19.6,22.4,32c6.1,23.5-19.5,21.3-34.1,18.3c-49.3-10.3-88.6-44-121.2-80.8c0.3-0.5,0.5-0.9,0.8-1.4
		c0.5-0.8,0.6-1.7,0.4-2.4c18.7,1.6,36.7,5.5,55.1,4.3c0.6,0.3,1.3,0.6,2.2,0.6C2722.5,188.1,2749,198.2,2769.4,217z M2744.7,153.6
		c-13.4,13-31.6,20.7-50,23.1c-19.7,2.6-39-2.7-58.6-4.1c-0.2,0-0.3,0-0.4,0c1.1-16.3,2.7-32.5,5.4-48.7c3.3-19.6,7-42.4,17.2-59.8
		c21.1-36.3,70.8-37,96.3-5.2C2777.3,87.4,2769.9,129.3,2744.7,153.6z"/>
	<path fill="#3C3C3B" d="M2558.3,65.9c-4.2-0.4-5.3,4.8-2.5,7.1c7.9,6.5,18.4,9,26.9,14.7c10.2,6.8,18.5,15.7,21.5,27.8
		c1.1,4.4,7.5,3.2,6.9-1.3C2607.9,89.9,2582.7,68.2,2558.3,65.9z"/>
	<path fill="#3C3C3B" d="M2638.2,26.3c-34.1,10-25.9,56.7-18,81.4c1.3,4,7.6,3.1,6.6-1.2c-6.9-28.7-10.4-54.4,13.5-75.9
		C2641.9,29,2640.6,25.6,2638.2,26.3z"/>
	<path fill="#3C3C3B" d="M2603.4,175.3c-15.6-16.1-32-32.3-49-46.8c-9.2-7.8-19.3-13.9-31-11.4c-0.6-0.1-1.3,0-1.9,0.2
		c-0.5,0.2-0.9,0.4-1.3,0.6c-0.1,0-0.2,0.1-0.4,0.1c-0.2,0.1-0.4,0.2-0.6,0.4c-16.5,8.8-14.2,31.5-1,41.4c-4.1,1.4-7.9,4.3-10.2,8
		c-6.8,10.6-1.9,24.5,7,32.2c25.8,22.5,71.1,5.8,90.2-17.2c1.1-1.4,0.3-2.8-0.9-3.4C2604.7,178,2604.6,176.5,2603.4,175.3z
		 M2548.9,200.7c-10.6,0.4-22.9-0.8-30.9-8.7c-11.8-11.7-3.2-29.5,13.3-26.6c1.1,0.2,1.8-0.5,2-1.4c2.5-1.2,2.2-5.2-1.1-5.8
		c-8-1.5-15.4-7.8-16.4-16.1c-0.9-7.7,3.4-13,8.9-17.5c15.3,1.3,25.9,13.1,36.8,23.4c12,11.4,23.8,22.9,36.2,33.8
		c0.1,0.1,0.2,0.2,0.3,0.2C2583.3,192.5,2567.3,199.9,2548.9,200.7z"/>
	<path fill="#3C3C3B" d="M2725.2,87.4c0.8-3.9,0.6-7.9-0.5-11.6c-0.7-4.2-2.4-8.1-5.6-10.7c0.7-1.3,0.5-3-1.2-4.2
		c-16.8-11.2-39-1.4-50.3,13.3c-16.1,21-18.4,53.1-16.1,78.5c0.2,1.9,2,2.1,3.3,1.4c0.2,1.5,1.2,2.9,3,3c16.8,1.3,97-5.5,94.3-35.1
		C2754.5,106.6,2741.6,86.5,2725.2,87.4z M2657.5,150.5c-0.5,0.1-0.9,0.2-1.2,0.4c5.4-32.3,9.1-93.3,54.6-84.7
		c2.1,2.3,3.6,5,4.5,7.9c0.2,1.1,0.4,2.2,0.5,3.3c0.4,4.7-0.5,9.4-2.7,13.6c-2.6,4.9,3,9.7,6.9,6.9c6.7,1.1,12.2,1.5,17.3,6.6
		c3.3,3.4,5.6,7.4,6.4,11.8c0,0.1-0.1,0.2-0.2,0.2C2730,144.4,2685,147.2,2657.5,150.5z"/>
	<g>
		<g>
			<path fill="#80D1F5" d="M2881.4,3480.4c-73.9-2.4-148.4,0.4-222.4,0.7c-74.4,0.3-148.2,12.7-222.4,16.9c-3.9,0.2-3.9,5.9,0,6.1
				c71.4,3,142.2-9.8,213.6-10.9c77-1.2,154.2,3.2,231.2,0.7C2890.1,3493.6,2890.1,3480.7,2881.4,3480.4z"/>
			<path fill="#80D1F5" d="M1581.9,3319.3c-164.4,0.4-329.3,3.9-493.4,12.5c-3.2,0.2-3.2,4.8,0,5c164.2,8.3,329.1-1.5,493.4-1.4
				C1592.3,3335.4,1592.3,3319.3,1581.9,3319.3z"/>
			<path fill="#80D1F5" d="M2191.2,3430.3c-1-4.9-8.1-4.5-9.4,0c-4.8,16.7-10.1,31.6-31.3,26.4c-12.1-3-21.5-16.6-30.1-24.9
				c-11.9-11.5-27-10.3-39.3,0.1c-6.6,5.6-9.6,15.7-13.1,23.3c-7.8,16.6-16.9,3.4-24.5-5.3c-10.7-12.3-26.1-20.7-41.9-11.5
				c-5.8,3.4-7.8,12.6-9.6,18.5c-7.9,26-29.9,4.7-38.5-8.4c-8.6-13.1-15.6-22.9-31.5-12.5c-10.7,7-19,18.3-28.1,27.1
				c-8,7.7-25.5,12.1-29.7-2.1c-1.6-5.3-3-10.6-5.1-15.8c-4.6-11.8-13-17.5-23.3-17.3c4.8-14.4,15-27.2,20-41.4
				c7.8-21.8,19.3-41.4,25.5-63.9c7.5-27.5,22.7-54.5,34.1-80.6c10.3-23.6,20.6-47.2,30.5-71c22.1-52.9,41.7-106.8,64-159.6
				c11.7-27.7,20.7-58,35.7-84c6.3-10.9,14.7-32.7,14.4-37.8c0.1,1.8,2.7,1.8,2.8,0c0.1-2.3,0.3-4.6,0.4-7c0.1-2.2-2.8-2.2-3.6-0.5
				c-8.1,19.4-22.7,35.9-30.6,54.8c-12,28.7-24.5,57.1-37.3,85.5c-23.5,52.2-43.1,105.9-65.8,158.4c-20.4,47.4-47.9,95.1-61.9,144.9
				c-6.1,21.5-17.2,45-27.7,64.9c-0.2,0.4-0.4,0.8-0.7,1.2c-5.5-18.3-18.1-36.5-24.2-52.6c-13-34.7-25.1-69.7-38.9-104.2
				c-14.5-36.3-28.2-72.4-40.4-109.5c-4.9-15.1-8.6-31.1-17.5-44.4c-2.4-3.6-20.6-42.5-21.9-50.3c0.1-0.5,0.2-0.9,0.3-1.4
				c0.9,0,1-1.2,0.3-1.6c0.8-4.4,1.3-8.8,1.6-13.2c0.2-2.5-3.7-2.5-3.9,0c-0.4,4-1.2,8.1-2.2,12.3c-0.5-0.1-1.1-0.2-1.6-0.3
				c-1.4-0.7-3.5,0.1-3.4,1.9c0.3,3.2,0.9,6.4,1.5,9.5c-3.3,9.3-7.3,18.5-10.5,26.9c-8.1,21.4-15.1,42.9-21.2,64.9
				c-12.2,44-22.8,88.4-34.5,132.6c-11,41.2-25.1,79.9-41.4,119.1c-1.1,0.1-2.1,0.3-3.2,0.4c-1.2,0.2-0.7,1.8,0.3,1.9
				c0.6,0.1,1.3,0.1,1.9,0.1c-0.3,0.8-0.7,1.7-1,2.5c-1.8,4.3-3.6,8.6-5.4,13c-2.7-1.5-6.5-0.9-7.3,2.9
				c-5.7,24.3-26.6,40.8-50.9,42.9c-39.1,3.4-42.6-24.1-43.6-55.4c-0.2-5.2-8.7-6.8-9.4-1.3c-2.3,16.4-19.1,45.8-35.4,51.7
				c-1.4,0.5-2.9,0.8-4.4,0.9c-0.2-1.2-0.5-2.4-0.7-3.7c-0.7-3.4-6.2-3.4-6.9,0c-0.2,1-0.3,2.1-0.5,3.1
				c-10.5-2.1-21.9-8.9-28.3-14.1c-13.2-10.8-17.6-27.4-17.3-43.6c0.1-5.1-6.7-8.2-10.3-4.3c-25.4,27.9-34.7,82.6-84,75.1
				c-18-2.7-35.8-30.5-41.4-45.9c-5.4-14.6,4.9-28.4-3.4-42.3c-2.2-3.6-7.6-4.6-10.6-1.4c-19.5,21.3-38.6,78.8-71.5,80.2
				c-0.1,0-0.2,0-0.3,0c-5.3,0.2-10.9-1.1-17-4.2c-17.9-9.2-35.2-86.1-10.4-91.4c0.7-0.2,0.6-1.3-0.2-1.3c-5,0.3-8.8,2.5-11.6,5.8
				c-0.5-0.6-1.2-1.2-2.3-1.3c-2.3-0.3-4.6-0.6-7-0.8c-1.7-0.2-3.3,1.3-3.7,2.8c-9.6,36.2-13.4,74.3-21.7,110.9
				c-7.8,34.6-13,69.4-20.6,104.1c-4.9,22.4-17.4,42.8-9.3,66.5c6.6,19.6,37.2,15.3,52.3,14.1c73.7-5.5,148.5-2,222.3-1.9
				c82.1,0.1,164.2,0.2,246.3,0.3c2.9,0,5-1.3,6.3-3.2c-0.2,16.9-0.4,33.8-0.4,50.7c0,5.2,4,7.8,8,7.8c4,0,8-2.6,8-7.8
				c-0.1-20.5-9.8-191.7,5.9-192.5c2.7-0.1,2.7-4,0-4.1c-2-0.3-4-0.8-6-1.3c-1.7-0.4-4,0.5-4.2,2.4c-1.7,10.8-8.7,17.2-9.1,28.1
				c-0.6,17.1-1.1,34.1-1.3,51.2c-0.1,7.5-0.2,15-0.3,22.5c-4.3,5.8-8.8,10.5-15.7,14.4c-13.7,7.7-27.6-0.4-38.5-9.1
				c-5.2-4.1-37.8-44.8-21.8-49.7c1.2-0.4,1-2.2-0.3-2.1c-25.5,0.5,6.8,53.3,13.4,60.5c12.2,13,31.3,19.4,48.2,13.9
				c4.5-1.5,9.8-4.2,14.4-7.7c-0.1,4.3-0.1,8.7-0.2,13.1c-1.3-1.9-3.4-3.3-6.4-3.3c-145.9,0.2-291.9,0.3-437.8,0.5
				c-18.4,0-70.6,14.9-70.8-13.3c-0.1-17.1,5.5-34.4,10.2-51.6c6.5,14.3,31.5,18.4,47,12.8c7.1-2.6,13.8-7.1,19.8-12.7
				c-2,11.5-0.6,22.9,4.8,34.9c9.5,21.2,32.1,23.3,52,24.8c20.5,1.5,36.7-10.8,48.1-26.8c7.1-10,16.6-20.6,21.3-32.4
				c0.9,0.1,1.8,0.2,2.7,0.3c11.1,1,28.4-2.6,42.3-10c-0.1,14.3,16.7,39.5,21.1,44.7c28.1,33.4,80.5,21.9,96.7-17.9
				c1.2-2.9-2.8-5.8-5.3-4c-9.8,7-17.7,15.9-27.6,22.8c-19.6,13.7-33.2,7-51.5-3.2c-6.2-3.5-31.3-33.6-28.3-45.5
				c8.8-5.7,15.4-13.3,17-22.4c8,10.5,22.3,12.5,35.9,9.3c6.3-1.5,12.5-3.8,18.3-6.7c0.4,8.4,2.3,16.5,7.7,24
				c8.4,11.8,24.7,20.8,38.9,22.4c25.7,3,54-27.2,57.7-53.7c2.9,0.7,5.9,1.2,9.3,1.3c31.7,0.9,59.5-43.6,53.1-71.5
				c-0.9-3.7-6.1-3.3-7.1,0c-7,21.8-17.7,48.1-40.8,56.9c-5.5,2.1-10.5,1.5-15-0.6c-0.1-0.2-0.1-0.4-0.1-0.6
				c-0.6-2.1-2.6-2.6-4.2-1.9c-8.5-6.3-14.9-17.8-18.2-26.2c-5.9-14.8-6.9-31.7-7.1-47.5c0-1.7-2.6-1.7-2.6,0
				c-0.4,25-1.5,69.4,22.2,85.4c-8.7,21.5-21.1,45.1-47.2,46.1c-11.3,0.4-28.1-12.6-33.9-21.4c-3.1-4.7-4.6-10.7-5.4-16.8
				c9.5-5.9,17.9-13.6,24.5-22.8c12.6-17.8,14.8-35.7,12.5-55.4c16.9-2,30.8-16.9,39-33.9c3.5,22.3,14.5,38.1,45.2,39.6
				c17.2,0.9,36-4.9,49.4-15.9c-5.4,18.7-8.9,37.9-8.9,57.7c0,10.5,15.8,10.4,16.3,0c0.3-6.1,0.8-12,1.5-17.9
				c18,1.6,36,2.4,54.1,1.9c23.2-0.7,45.9-5.6,69-6.1c20.3-0.5,40.6,4.2,60.6,6.7c19,2.4,37.7,2.4,56.8,2.5c10.2,0,10.2-15.9,0-15.9
				c-39.6,0.1-78-7.8-117.4-8.6c-20.3-0.4-40.8,6.1-60.8,8.3c-20.4,2.2-41,3.3-61.5,5.2c4.8-32,15.6-61.9,27.8-92.2
				c31.8,1,63.9-3.5,95.8-3c38.4,0.6,79.6,5.2,117.6-0.6c5.4-0.8,5.4-10.1,0-10.9c-38.1-5.8-79.2-1.2-117.6-0.6
				c-31.3,0.5-62.4,4.8-93.4,9.2c0.5-1.2,1-2.4,1.4-3.5c7.9-19.4,14.7-38.9,20.8-58.6c30.1,2.8,60.6,2.3,90.8,2.4
				c26.3,0.1,54.5,3.1,80.6-0.9c1,2.8,2.1,5.6,3,8.4c5,14.2,9.9,27.6,16.6,41c7.3,14.7,11.2,29.9,16.7,44.9
				c-3.8,8.1-6.9,16.4-7.8,25.6c-0.5,4.9,5.7,9.9,10.4,7.9c6.9-2.9,11.3-0.7,14.6,3.8c-5.4,33.7-6,68-6.1,102
				c0,20.5,0.2,41,0.6,61.5c0.3,18.4-1.9,38,3.4,55.7c1.8,6.1,10.6,6.1,12.3,0c5-17.1-5.4-154.9-3-204c4,10.1,8.6,20.5,18.9,22.2
				c26.3,4.2,41.9-18.9,58.9-35.1c9.5-9.1,18.2,12.7,24.3,19.5c6.9,7.7,16.6,14.9,27.2,15.8c8.8,0.8,17.4-0.2,22.2-8.7
				c3.4-6,6.4-25.4,11.9-27.6c10.9-4.4,21.2,12.9,27.1,19.3c6,6.5,12.9,9.8,21.6,10.8c21.8,2.6,26.8-55.3,47.2-38.1
				c18.1,15.3,29.7,32.4,56,30.6C2187.7,3472.5,2195.3,3449.8,2191.2,3430.3z M1161.2,3453.1c27.4-12.9,38.3-44,55.2-68
				c-1.2,6.8-4.3,13.8-2.4,20.5c2.6,9.4,7.4,20.4,12.4,29c4.3,7.2,9.9,14,16.4,19.6c-6.3,13.3-11.8,26.1-19.5,38.9
				c-8.2,13.7-5,26.8-24.6,28.5c-16.6,1.4-30.8-0.3-40.1-9.7c0.5-3.7,0.8-7.3,0.7-10.8c0-1.4-2.3-1.8-2.6-0.3
				c-0.4,2.3-0.9,4.6-1.6,6.9c-2.7-4-4.8-8.9-6.2-15c-2.6-11.8-2-24-2.7-36C1151.6,3456.4,1156.7,3455.2,1161.2,3453.1z
				 M1116,3561.3c-7.9,5.3-17.3,8.2-26.8,7.9c-11.6-0.4-13.3-13.5-18.2-21.4c-0.7-1.1-2-1.8-3.2-1.8c0.2-1.1,0.4-2.2,0.5-3.3
				c4.7-33.9,13.6-66.3,19.6-100c3.1-17.2,5.4-34.5,7.8-51.8c0.8-6.2,1.6-12.4,2.4-18.6c1-7.9-3-12.8,3.6-14
				c-9.8,21,0.7,66.3,7.1,79.1c5.8,11.7,19,18.2,32.3,19.1c-3,17.7-4.2,35.8,0.7,53.2c1.6,5.5,4.1,9.8,7.3,13.2
				C1141.1,3538.3,1128.7,3552.8,1116,3561.3z M1233.5,3577c-8.1,11.3-13.5,21.6-24.5,30.5c-14.8,12-45.1,7.9-58.7-3.4
				c-12.6-10.4-16.6-27.6-14.2-43.2c8.2-9.6,14.7-21.3,18.8-33.2c10.4,6.9,24.8,8.1,38.1,8.2c9.4,0.1,18-0.9,24.8-4.7
				c2.3,15.5,10.1,27.9,25.4,33.9C1239.9,3568.9,1236.7,3572.5,1233.5,3577z M1406.8,3483.3c-3.9,12.6-13.3,23.5-23.9,32
				c0-0.1,0-0.2,0-0.3c-0.3-3.2-4.7-3.2-5,0c-0.1,1.5-0.2,2.9-0.4,4.3c-2.3,1.6-4.5,3.1-6.8,4.4c-14.4,8.5-35.7,10.8-43.4-6.9
				c-6.8-15.5-17.5-27.1-21.1-44.2c-0.6-2.7-4.6-1.9-4.7,0.6c-0.8,16.3,6.7,30.9,13.7,45.3c-0.1,0.1-0.3,0.2-0.4,0.3
				c-6.6,6.4-9,15.4-15.6,22.3c-8.1,8.5-20.4,12.5-31.8,13.6c-2.8,0.3-5.8,0.2-8.9-0.1c0-1.9-0.1-3.9-0.4-5.8
				c-0.5-3.2-4.9-2.6-5.9,0c-0.5,1.5-1.1,2.9-1.7,4.3c-6.4-1.7-12.5-4.6-17-8.4c-5.2-4.4-7.2-12.1-8.4-20c2.1-2.6,3.8-5.6,5.2-9.4
				c6-16.7,22.5-34.7,23.4-53.2c4.3,2.4,8.8,4.4,13.5,5.7c20.8,5.8,41.2-3.3,56.6-16.8c15.8-13.8,21.6-34.4,31.6-51.9
				c6.1,27,25,50.4,54.4,54.1C1409.6,3463.6,1409.7,3474.2,1406.8,3483.3z M1707.8,3307.5c-29.4,0.1-59.2-0.4-88.6,2.2
				c5.9-19.8,11.2-39.8,16.2-60.1c10.9-44.8,20.7-89.9,31.9-134.6c5.4-21.6,14.7-43.5,21.1-65.7c6.9,22.2,19.2,42.7,26.1,65
				c5.6,18.2,11.3,36.5,17.4,54.6c-9.5-2.9-19.9-1.7-30.1-1.7c-14.4,0.1-29.2,0.1-43.4,2c-6.8,0.9-6.8,9.7,0,10.6
				c14.2,1.9,29.1,1.9,43.4,2c11.4,0,23,1.6,33.5-3c5.2,15.1,10.7,30.2,16.6,45.1c0.2,0.5,0.4,1,0.6,1.4
				c-16.8-2.9-34.6,0.4-51.4,2.3c-19.1,2.1-38.3,4-57.2,7.3c-2,0.3-2,3.7,0,4c16.6,2.5,33.2,1.5,49.9,0.2c20.3-1.5,42.5,0,62.2-5.1
				c9.8,24.5,19.4,49,28.5,73.7C1759.5,3304.7,1732.7,3307.4,1707.8,3307.5z"/>
			<path fill="#80D1F5" d="M1077.6,3653.2c-0.4-2.9-5.5-2.9-5.9,0c-3.4,25.1-8,54-3.4,79c1.2,6.2,11.4,6.2,12.6,0
				C1085.6,3707.1,1081,3678.2,1077.6,3653.2z"/>
			<path fill="#80D1F5" d="M1176.4,3123.4c12.4-12.4,8.4-38.9,8.4-54.8c0.1-15.2-8.5-26.1-24.3-26.6c-10.4-0.3-20,1.8-30.3,2.6
				c-14.7,1.2-35.3-6.3-50.2-8.3c-76.6-10.3-153.8-7.5-230.8-6c-12.4,0.2-24.9-0.2-37.4-0.8c0-0.3,0-0.6-0.1-0.9
				c-0.1-1.6-2.2-1.5-2.4,0c0,0.3-0.1,0.5-0.1,0.8c-20.7-1-41.5-2.2-61.9-1c-18.5,1.1-22.3,16.4-41,18.5c-4.3,0.5-12,3.7-19,5.7
				c-0.1-1.1-0.1-2.1-0.2-3.1c-0.1-2.1-3.1-2.1-3.3,0c-0.1,1.3-0.1,2.7-0.2,4c-5.9,1.2-10.6,0.8-11.1-4c-0.1-1.3-1.8-1.3-2,0
				c-0.2,2.3-0.5,4.6-0.7,7c-0.1,0.9,0.8,1.7,1.6,1.7c3.7-0.1,7.7-0.3,11.9-0.5c-1.5,27.4-2.8,54.8-3.9,82.3c-0.1,3.2,2.8,6.1,6,6
				c3-0.1,5.1-1,8.1-2c3.9-1.4,3.9-6.6,0-8c-0.8-0.3-1.6-0.6-2.3-0.8c-0.1-2.2-0.2-4.5-0.3-6.7c0.4,0.3,0.9,0.5,1.5,0.5
				c14.8,0.9,29.5,1.4,44.2,1.8c0,0.7,0.1,1.5,0.1,2.2c0.1,4.6,5.6,5.5,8.1,2.2c1.1-1.5,2.1-2.8,2.9-4.1c47.1,0.9,93.6-0.7,140.8-5
				c0.1,2.7,2.5,5.7,5.4,5.4c6.4-0.6,9.7-2.6,10.3-6.9c3.4-0.4,6.8-0.7,10.3-1.1c14.4-1.6,28.7-2.4,43-2.7c0.9,3.2,4.1,4.8,7.6,4.3
				c4.3-0.6,6.9-2.1,8.1-4.4c20.1,0.1,40.2,1,60.4,2c0,1.1-0.1,2.3-0.1,3.4c0,3.4,2.9,6.5,6.4,6.4c3-0.1,5.2-1.9,8-2.5
				c3-0.7,3.6-4.4,2-6.5c22,1.1,44,2.2,66,2.3c0.1,0,0.3,0.1,0.4,0.1c6.3,0.8,15.1,2.7,24.2,3.8c-7.7,16.6-5,38.1-4.5,55.8
				c0.5,20.4,3,39.8,5.3,60.1c2.5,22.3,0.4,45.7,0.2,68.2c-0.1,12.3,19.2,12.3,19.1,0c-0.3-37.2-2.6-72.3-7.2-109.2
				c-2.4-19.4-9.6-52.1-4.2-74C1160,3130.8,1170.2,3129.6,1176.4,3123.4z M1100.8,3110.5c0.3-5.9-0.3-12-0.6-17.7
				c-0.5-9.9-1.1-19.7-2.4-29.5c-0.4-2.9-4.2-2.9-4.6,0c-1.2,9.8-1.8,19.6-2.4,29.5c-0.3,5.5-0.9,11.4-0.7,17
				c-14.6-0.9-29.2-1.9-43.8-2.8c-0.1-8.2-0.4-16.5-1.5-24.3c-1.4-9.6-7.4-17.7-9.4-27.1c-0.6-3-5.1-2.2-5.1,0.7
				c-0.2,8.7,3.2,16.7,4.3,25.2c1.1,8,0.5,16.4-0.1,24.8c-21.9-1.2-43.9-1.9-65.8-1.7c-2.1-18.5-7.3-36.9-9-55.4c-0.4-4-6-4.1-6.3,0
				c-1.2,18.8,1.5,37.1,3,55.6c-13.9,0.4-27.9,1.3-41.8,2.8c-5.5,0.6-11,1.2-16.5,1.9c-2.4-17.9-7.4-35.3-9.1-53.3
				c-0.2-2.5-3.8-2.5-3.9,0c-1.2,18.3,1.4,36.4,2.7,54.6c-27.3,3.4-54.6,6.9-82.2,8c-18.4,0.7-36.8,1.2-55.2,1.7
				c0-0.6,0-1.1-0.1-1.7c-0.2-3-4.2-2.9-4.6,0c-0.1,0.7-0.4,1.3-0.6,1.9H745c-1.4-21.5-6-43-8-64.4c-0.3-3.6-5.4-3.7-5.6,0
				c-1.3,21.6,2.9,43.1,4.7,64.7c-14.5,0.5-29.1,1-43.6,1.8c-0.7,0-1.2,0.3-1.7,0.6c-1-22.1-2-44.2-3.2-66.3
				c13.4-1,27.5-3.1,38.1-8.9c13.3-7.3,19.9-11.5,36-11.3c11.9,0.1,23.8,2.1,35.6,2.9c3.5,0.3,7.1,0.4,10.7,0.6
				c-1.5,11.4-2.9,22.6-3.5,34.2c-0.6,12.4-1.8,30.5,8.2,39.9c1.2,1.2,3.3,2,5,1.3c0.3-0.1,0.7-0.3,1-0.4c1.6-0.6,2.8-1.9,2.8-3.7
				c-0.1-4.3-3.6-7.8-4.8-12c-2.3-8.1-2.7-16.9-3.2-25.2c-0.7-11.3-0.5-22.6-0.9-33.9c56.9,2.7,114.9-2.5,171.8-1.5
				c29.1,0.5,58.2,2.4,87.2,5.8c19.6,2.3,43.6,12,63.2,8.7c11.7-2,34-8.9,40.3,6.5c3.4,8.4,0.8,20.7-0.3,29.1
				c-2,15.5-8.2,25.5-24.3,25.3c-0.1,0-0.1,0-0.2,0c0.1-5.9-0.5-11.8-0.8-17.6c-0.6-11.6-1.2-22.9-2.7-34.4c-0.3-2.5-4.7-2.5-5,0
				c-1.3,9.9-2,19.6-2.5,29.6c-0.3,6.6-1.2,13.6-1.1,20.5c-0.3,0-0.5-0.2-0.8-0.2C1125,3112,1112.9,3111.3,1100.8,3110.5z"/>
			<path fill="#80D1F5" d="M856.5,3195.6c-68.2-42.6-61.9,85-60.9,117.9c0,1.4,2.1,1.4,2.2,0c0.6-28.3-6.3-126.9,42.1-114.8
				c34.5,8.7,28,64.7,27.2,90.9c-0.3,9.6,3.1,27.1-13.1,27.4c-6.5,0.1-12.9-2.3-19.3-2.9c-10.9-1-22.7-1.4-32.8,3.2
				c-2.3,1.1-2.3,5.1,0,6.2c14.7,6.7,36,5.1,52.1,6.4c14.7,1.2,25.1-10.8,25.3-25.2C879.8,3273.6,888.6,3215.7,856.5,3195.6z"/>
			<path fill="#80D1F5" d="M1036.2,3253.4c-3.5-18.8-1.2-39.5-8.9-57.1c-11-25.3-50.2-18.3-62.2,1.2c-18.1,29.4-14.2,65-11.9,98.2
				c-2.5,2.2-2.4,6.1,0.5,8.1c0,0.9,0.1,1.8,0.2,2.7c0.2,3.4,5.6,3.3,5.2,0c0-0.2,0-0.5,0-0.7c15.7,4.4,34.2,1.6,50.3,2.5
				c9.4,0.5,22.2-0.1,27.6-9.4C1044.6,3286.1,1038.7,3267,1036.2,3253.4z M1014.9,3293c-18.3,0.7-38-4.7-55.8,0.3
				c-0.3-17.5-1.4-35,0-52.6c1.2-14.8,5.9-31.2,16-42.4c7.5-6.7,16.2-9.1,26-7.2c18.5,2.7,18,19.7,18.3,32.2
				C1019.7,3238,1034.7,3292.3,1014.9,3293z"/>
			<path fill="#80D1F5" d="M882.1,3486.9c-1.2-15-1-30.9-4.6-45.6c-5.4-21.6-21.2-44.4-46-36.6c-33.6,10.5-60.9,88.5-30.1,112.6
				c3.2,2.5,7.7-1.6,4.6-4.6c-23.7-23.6,2-83.4,26.3-97.4c36.4-20.9,40.4,77.8,35.2,106.3c-19-0.2-37.9,0-56.9,0
				c-9.4,0-9.4,14.5,0,14.6c20.8,0,41.7,0.2,62.5,0c3.4,0,5.9-2.2,7-5.3C885.2,3517,883.2,3501.3,882.1,3486.9z"/>
			<path fill="#80D1F5" d="M995.2,3384.1c-62.1-3.2-54.8,82.7-43.5,123.2c-0.2,1.1-0.1,2.2,0.5,3.3c13,23.5,59.6,12,80.8,11.5
				c3-0.1,6.1-2.1,6.8-5.2C1047.4,3481.9,1047.9,3386.8,995.2,3384.1z M960.2,3503.8c-6.3-33.5-16.9-105.9,31-107.9
				c42.2-1.8,41.6,80.1,35.9,112.2C1004.1,3508.6,982.9,3510,960.2,3503.8z"/>
			<path fill="#80D1F5" d="M720.5,3388.2c-1.5-45.6-5.3-91.2-7.7-136.8c-1.3-24.3-2.3-48.6-2.6-73c-0.1-12.2-0.1-24.3,0-36.5
				c0.1-8.5-4.7-4.9,3.3-8.3c0.8-0.3,0.8-1.3,0-1.7c-3.2-1.3-4.1-1.9-7.2-2.3c-1.3-0.2-2.8,1.1-3,2.3c-8.7,41.4-5.7,86.5-4,128.5
				c1.8,45.6,4.9,91.2,5.8,136.8c1.1,53.1,0.9,106.3,0.5,159.4c-1.3-2.1-2.7-4.2-4.3-6c-2.6-3-5.2-5.4-8.2-8
				c-2.6-2.1-7.7-3.7-9.8-6.7c6-22.6,8-45.4,1.4-68.3c-2.3-7.9-7.2-15.1-12.9-21c-4.5-4.6-22.4-19.7-27.9-19.4
				c1.7-0.1,2.6-1.4,2.6-2.6c24.9-6.7,42.6-35.9,40.5-61c-1-12.2-9.6-22-17.8-30.4c-7.9-8.1-15.6-14.7-16.6-26.8
				c-0.8-8.9,1.6-18.3,1.6-27.2c-0.2-53.4-73.7-69-104.9-35.1c-9.7-26.2-27.6-46.7-60.1-42.2c-15.9,2.2-37,9.7-45.8,24.7
				c-9.5,16.2-5.2,42-2.2,59.4c0.2,1.1,2.1,1.1,2.3,0c5.1-28.7,5.4-57,37.7-67.1c35.9-11.2,51,18.9,57.4,48.1
				c1.8,8.6,13.6,7.4,16.1,0c9-27,35.8-24,58.1-21c28.8,3.9,21.3,47.1,22.9,65.8c1.1,13.9,11.9,24.6,21.2,33.9
				c22.5,22.7,9.2,57.8-22.1,63.8c-6.7,1.3-7.5,9.2-4,13.6c-0.1,0.5-0.2,0.9-0.1,1.5c1.4,17.4,18,23.4,29.9,33.5
				c19.9,16.9,8.7,56.1,13.8,78.9c0.1,0.6,0.4,1.1,0.7,1.5c2.3,10.4,15,15.4,20.3,24.8c6.4,11.5,2.2,25.4,7.5,37.2
				c0.5,1.1,1.5,1.8,2.7,2c-0.1,19.4-0.2,38.9-0.3,58.3c0,10.6,16.5,10.6,16.5,0C721.4,3570.1,723.5,3478.9,720.5,3388.2z"/>
			<path fill="#80D1F5" d="M566.8,3465.2c-13.9-11.9-40.4-7.6-41.3,15.1c-0.8,21-6.2,41.5-6.7,62.5c-0.3,10.3-6.8,19.8-10.7,30.1
				c-13.6-15.4-21-45.3-27.7-61.5c-7.5-18.2-16.3-39.7-38.1-42.1c-2.9-0.3-4.2,2.8-3.9,5.1c0.4,2.9,0.7,5.7,1.2,8.5
				c0.2,1.3,1.1,1.9,2,2c-1,0.2-1.9,0.9-1.9,2.3c-0.3,24.4,6.8,45.9,15.7,68.5c10,25.2,18.3,48.3,23.9,74.9
				c4.9,23.3,8.1,47.8,15.2,70.5c4.9,15.8,0.8,33,11,46.9c5.4,7.4,17.9,0.2,12.4-7.2c-9.1-12.3-6.8-33.9-11.6-48.7
				c-6.6-20.6-9.4-43.8-14.4-65c-5-21.5-10.4-40.8-19.6-60.9c-11.8-25.6-24.9-50.5-27.7-79c-0.1-1.4-1.1-2.1-2.1-2.3
				c1,0,2-0.6,2.3-2c2.7-15.4,17.8,15.3,20.6,20.9c5.2,10.6,8.8,22.2,13.1,33.2c6.8,17.3,13.8,42.1,29.9,53c4.3,2.9,9.2-1.1,9.6-5.5
				c1-11.8,6.7-19.7,11.6-29.8c4.8-9.7,3.4-23.2,4.9-33.5c1.8-12.2,1.6-31.7,6.6-43c5.8,0,11.7,0,17.5,0c3.6,8.3,5,16.7,4.2,25.5
				c-0.2,9.8-4,20.1-6.8,29.4c-9,28.9-11.8,60-14.2,90.1c-2.8,35-5.2,72.2-1.8,107.2c0.8,8.4,12.2,8.4,13,0
				c5.1-53,1.1-105.9,9.2-158.9C566.4,3544.8,594.1,3488.5,566.8,3465.2z"/>
			<path fill="#80D1F5" d="M159.6,3698.9c-24.5-17.7-56.9-19-64.5-52.9c-6.5-28.8,5-50.8,34.5-54.3c0.3,0,0.3-0.4,0-0.4
				c-27-2.1-46.3,10.2-47.2,39.8c-0.5,14.6,1,31.7,10.8,43.4c16.1,19.1,40.6,21.4,62,31.9C160.3,3708.9,164.1,3702.1,159.6,3698.9z"
				/>
			<path fill="#80D1F5" d="M429.2,3275.8c-25.2-7.4-56.8-8.9-77.3,9.8c-23.2,21.1-7.5,44.3-2.7,67.8c-14-0.3-24.1,0.1-35.4,12.2
				c-10.3,11.1-23.7,30.5-26.2,45.6c-2.8,16.6-13.1,28.2-5.7,45.6c7.2,16.9,18.3,17.9,32.4,22.3c-1.2,4.9-2.9,9.3-4.7,13.7
				c-18.9-19.3-40.4-39.3-68.5-39.4c-18.4-0.1-16.7,14.2-19.3,26.6c-38.7-3.5-73.7-24.6-108.2,4.2c-28.2,23.5-31.8,84.4,7.8,97.9
				c4,1.4,7.2-3.5,5.3-6.9c-8.4-14.9-19-24.1-19.3-42.4c-0.5-25.1,19.3-47.5,43.8-50.2c25.1-2.8,50.5,10.8,75.8,11.5
				c3.2,0.1,5.6-2.2,6.7-5.1c4.5-12.5-0.1-23,19.4-23.8c14.8-0.6,45,19.4,56.3,28.7c-3.8,9.1-7.7,17.9-7.7,29.3
				c0,19-1.4,30.5,10.2,46.1c14.7,19.7,38.5,28.8,61.2,36.6c-13.5,4.6-23,28.2-25.3,39.9c-3.9,19.4-7.5,39.1-8.2,59
				c-0.3,9.2,0.3,18,1.8,27c0,0.3,4.9,24.5-4.6,18.7c-3.2-2-5.9-5.5-8.3-8.3c-22.6-26.4-33.3-62.4-51.5-91.7
				c-9.4-15.3-29.7-21.3-31,0.4c-0.5-1.6-0.9-3.3-1.2-5c-0.8-4.3-7.5-3.2-7.5,1c0,10,2.3,18.5,6.5,27.8
				c7.7,17.3,11.3,34.3,17.1,52.2c8.2,25.6,19.1,52.8,21.7,79.9c0.9,9.3,15.4,9.3,14.6,0c-2.2-23.2-10.6-46-18.1-67.8
				c-5.7-16.5-9.2-33.7-15.5-49.9c-4.5-11.6-11.5-21.7-15.8-33.1c1.1,0.3,2.2-0.2,2.5-1.5c5.8-27.9,23.1,9,26.5,15.3
				c8.6,16,16.2,32.6,24.6,48.7c8.5,16.2,22.8,48,45.6,45c1.9-0.3,3.3-2.2,3.8-3.8c3.7-10.6,3.3-19.8,1.7-30.8
				c-2.9-19.4-0.9-39.6,3.3-58.6c2.2-9.8,3.1-19.7,5.6-29.5c3.7-14.7,10.7-18.8,22.3-23.6c-4.6,25.7-8.7,48.4-9,75.2
				c-0.3,22.5-11.3,44.6-5.8,67c1.1,4.4,7.7,4.4,8.8,0c2.6-10.6,1.5-21.3,4.3-31.9c3.4-12.6,4-21.4,3.8-35.1
				c-0.2-15.4-1.5-31,1.4-46.2c2.1-11,3.5-21.1,2.6-32.3c0.8-1.2,1-2.8-0.4-3.9c0,0,0,0,0,0c2.7-1.5,3.9-5.7,1.4-8.2
				c-17.7-17.2-42.9-22-60.9-38.8c-26.8-24.9-0.1-61.5,3.5-89.6c0.5-4.1-3.1-7.1-6.4-8.4c-13.2-5.3-29.1-3.3-30.3-22.5
				c-0.5-8.5,5.8-23.6,9.7-31.4c5.8-11.6,12-23,20.1-33.2c8.1-10.2,21.4-7.2,33-7.2c4.4,0,8.8-3.9,8.5-8.5
				c-1.1-18.1-14.7-36.1-10.3-53.8c7.5-29.7,49.7-20.1,72.1-26.7C432.1,3280.8,432.1,3276.6,429.2,3275.8z"/>
			<path fill="#80D1F5" d="M3643.6,3684.4c-7.5-15-12.1-31.4-21-45.6c-10.8-17.5-12.7-38.1-21.8-56.2c-9.2-18.4-15.1-36.9-22.6-55.9
				c-3.1-7.9-13.6-10.5-20.9-12.2c-10.4-2.3-21.7-0.8-32.2-0.2c-22.7,1.4-45.9,0.3-68.7,0.9c-44.9,1.2-90,3.1-134.9,5.5
				c-8.3-30.4-37.7-60.9-58.3-78.3c-33.5-28.3-73.3-40.6-116.8-35.2c-42.1,5.2-86.8,26.2-121.6,49.8c-16.7,11.3-31,25.5-42.4,42.1
				c-12.1,17.5-10.7,44.4-9.1,64.6c0.1,1.4,0.7,2.9,1.6,3.9c-43.6-42.6-66.9-108.2-80.6-165c-6.5-26.9-10.9-54.2-15.1-81.5
				c0.8,0,1.5,0,2.3-0.1c9.6-0.5,9.7-14.6,0-15c-1.5-0.1-3-0.1-4.6-0.2c-1.3-8.4-2.5-16.9-3.8-25.3c-2.8-17.7-2.9-32.8-1.2-50.5
				c1.2-12.7,0.5-25-6.2-36c-11.2-18.6-41.3-0.4-55.4,3.7c-6,1.7-12,3.5-17.9,5.3c-0.1-25.7-0.8-51.5-2.2-77.1
				c-0.2-4.1-3.6-6.5-7.6-5.8c-8.4,1.6-17.6,1.2-26.2,1.7c-2.6,0.1-3.9,2.1-4,4.1c-9.7,6.3-11.2,19.5-12.4,30.5
				c-2.2,20.5,0.8,41.1,1.7,61.6c-15.3,4.3-30.6,8.4-46.2,11.9c-36.2,8.1-73.2,8.8-109.1,1.1c-1.3-6.6-3.2-13.5-3.1-20
				c0.1-17,1.8-33.8,0.7-50.8c-1.4-21.4-10.8-39.6-33-38c-0.2-3.4-0.3-6.7-0.5-10.1c-0.2-3.4-5-3.4-5.2,0c-0.2,4.2-0.4,8.3-0.6,12.5
				c-0.2,0.6-0.3,1.3-0.1,2c-0.7,13.9-1.3,27.9-2,41.8c-0.7,16.5-6.1,31.9-7.9,47.9c-10.5-3.3-20.7-7.5-28.6-14
				c-10.5-8.6-19.9-15.8-32.7-20.7c-3.4-1.3-8.3,1.4-8.9,5c-7,44.8,4.7,89.2-3.9,134c-9.4,49.4-31.2,97.4-57.1,140.1
				c-21.4,35.3-42.4,70.9-71.4,100.6c-32.7,33.5-71.3,40.9-114.5,45.7c-0.8-21.6-1.9-43.2-2.1-64.3c-0.3-20.4-1-40.9-1.5-61.3
				c-0.1-5-0.5-10-0.8-15c3.6,0,7.7-2.8,8.2-7c1.3-12.3,0.5-24.7-1.7-37.1c2.4,0.8,5.5-0.2,6.4-3.2c3.7-12.4-1.5-22.5,16.1-23.2
				c3.2-0.1,6-2.6,5.9-5.9c-0.1-19.7,4.7-36.9,30.9-26.4c7.5,3,15.8,3.4,23.9,2.5c6.7,7.2,15.4,1.7,23.4-2.4c2-1,0.2-3.9-1.8-3
				c-2.1,1-3.9,1.5-5.5,1.9c0.2-0.3,0.1-0.9-0.4-1c-3.4-1-6.9-1.5-10.4-1.9c-5.6-6.6-4.3-21.3-0.6-29.7
				c6.7-15.2,26.4-44.4,44.3-14.4c3.9,6.4,5.8,15.5,8.9,22.6c2.4,5.6,9.6,3.8,12.5,0c2.9-3.8,4.5-7.8,6.2-12.3
				c6.5-17.1,24.2-28.7,36.6-8.4c8.8,14.6,8.5,32.5,16.4,47.2c2.1,4,7.3,2.4,8.7-1.1c8.9-22.4-10.4-62.9-32.1-72.1
				c-24.4-10.3-32.6,9.6-40.9,26.6c-5.5-13.3-12.4-26.7-28.8-27.7c-24.7-1.5-34.2,12.2-43.1,33c-5.9,14-4.7,23.4,1.7,35.3
				c-5.3-0.7-10.5-1.7-15.2-4.1c-9.5-5-18.4-5-28.7-2.5c-15.3,3.6-17.5,19.3-17.9,32.7c-11.7,1.8-19.2,8.3-21,18.5
				c-5.8-21.5-14.4-42.6-21.4-62.4c-16.8-47.6-26.7-95.2-38.7-144c-13-52.6-29.9-104.2-46.2-155.7c-14-44.4-33-90.9-38.6-137.4
				c-0.3-2.6-4.2-2.7-4.1,0c1.2,43.1,16.6,83.7,27.5,125c6.4,24.4,13.1,48.7,19.7,73.1c-11.3,8.5-13.6,23.7-23.4,33.7
				c-12.3-13.5-29.8-34.3-48.1-28.2c-7.5,2.5-14.2,12.6-17.6,19.1c-8.7,16.5-28.3,5.3-33-8.6c-2.1-6.3-2.9-13.5-4.1-20
				c-0.4-2.2-4-2.2-4.4,0c-4,23.1,1.2,60.3,35,52.6c14.6-3.3,19.1-15.3,28.4-25.7c6.7-7.5,31.5,22.7,37,28.3
				c2.6,2.7,7.1,3.4,10.3,1.3c10.2-6.5,20.6-18.6,25.6-31.5c5.4,20.3,10.8,40.6,15.7,61.1c2.1,8.5,3.9,16.9,5.8,25.4
				c-2.2,5.5-3.3,9.2-6.8,14c-5.3,7.3-4.7,15.3-7.2,22.9c-12.9-7.4-27.1-24.7-40-21.1c-9,2.5-14.5,16.4-20,22.5
				c-4.3,4.8-29.5-33.1-33.4-37.6c-3.2-3.6-9.7-3.5-12.9,0c-11.8,13.1-19.5,29.2-32.2,41.6c-22.4,21.9-54.2-34.5-36.4-46.5
				c1.9-1.3,2-4.8-0.7-5.4c-9.9-2-14.9,6.3-15.7,15.5c-1.6,19,1.6,30.1,14.1,45c30.8,36.7,57.5-4.4,76.9-29.1
				c11.7,17.3,26.8,44.6,48.2,34c5.4-2.7,10.3-10.1,14.3-14.4c6.9-7.3-1.1-8.7,7.7,0c6.4,6.3,22.9,14.3,31.9,16.4
				c3,0.7,7.1,0.2,9.1-2.4c6.7-8.7,7.7-15.7,9.5-25.2c6.5,30.7,13.3,61.2,23.6,91.1c0.2,0.5,0.3,0.9,0.5,1.4
				c-3,10-8.2,22.6-22.2,16.3c-5.6-2.5-9.2-6.7-13.9-10.2c-8-5.9-15.5-5.4-24.1-0.6c-3.6,2-5.9,6.3-8,9.7c-5,8.3-7,7.2-16.8,7.3
				c-17.1,0.1-27.9-18.2-41.5-26.8c-4.7-3-9.9,0.2-11.7,4.8c-6.7,16.8-33.7,44.8-50.5,20.6c-6.8-9.8-11.5-18-21.2-25.5
				c-3.1-2.4-7.2-0.8-9.8,1.3c-11.2,8.8-16.7,21.8-23.7,33.9c-7,12.1-29,24-38.1,2.3c-3.4-8.2-2.6-29.3,6.5-34.8
				c3.2-1.9,0.9-6-2.3-5.6c-11.5,1.5-16.3,16.2-19.1,25.8c-4.6,15.2,3.9,31.8,17.5,38.5c35.8,17.6,47-23.3,65.2-43.5
				c13.8,14.1,17,30.3,41.5,32c21.4,1.5,36.4-13.6,45.1-31c14,10.7,22,23.7,42.1,23.8c5.3,0,18.6,2.9,22.7-2.3
				c6.2-7.8,11.4-21.9,23.3-10.4c15.3,14.9,36,11.1,47.3-1.6c10.2,30.2,19.6,60.2,25.7,91.7c-1.8,6.1-3.3,12.3-3.7,19.1
				c-1.4,22.9-1.4,45.9-2,68.8c-1.4,52.5-6.2,108.1-1,160.3c1.2,11.6,16.9,11.6,18,0c2.4-24.4,2.4-49.3,1.7-74.4
				c0.8,1,1.9,1.8,3.2,1.9c72.3,7.2,145.5-2.9,217.4-10.4c70.2-7.3,139.6-13.3,210.2-13.2c29,0,56.6,4.9,85.4,6.8
				c34.5,2.4,68.8-1.4,103.2,3.5c50.8,7.2,103.7,12.2,155.5,11.6c-1.3,13.3-1.7,26.5-1.8,39.9c-0.1,9.7-3.8,24.3,4.7,31.1
				c2.4,1.9,4.9,1.9,7.2,0c8.5-6.7,4.8-21.4,4.7-31.1c-0.1-13.4-0.5-26.8-1.9-40.2c5.4-0.2,10.9-0.3,16.3-0.6
				c0.8,0.3,1.7,0.7,2.5,1.1c11.6,4.3,16.5-14.2,5.1-18.4c-21.2-7.8-39.3-20.1-54.9-35.3c1,1,2.2,1.6,3.8,1.5
				c3.8-0.3,5.6-1.5,8.4-4.1c0.8-0.8,0.8-2.2,0-2.9c-0.9-0.9-1.7-1.5-2.5-2.1c1.7-21.9,2.7-43.4,16.8-61.6
				c11.3-14.6,26.6-25.7,42-35.4c32-20.3,72.1-36.5,109.9-41c39.4-4.7,74.1,10.9,103.6,35.8c13.7,11.6,24.5,24.5,33.9,39.6
				c4.8,7.7,8.3,16.4,12.1,24.8c-2.4,1.1-3.9,3.5-4.2,6.4c-2.4,26.5-20.2,57.5-30.3,82.3c-7.2,17.8-25.2,41.3-20.5,61
				c-1.1,13.9-21.7,28.4-13.2,42.9c9.6,16.4,39.2,7.7,56.3,4c6.9,11.5,9.7,20.3,22,29.4c10.7,8,31,2.4,41.6-2.4
				c10.8-4.9,21.2-10.5,32.4-14.5c15.3-5.5,24,4.6,37.8,8.9c12.5,3.9,25.2,6.7,35.9-3c12.3-11.2,19-23.3,36.4-13.2
				c6.7,3.8,12.2,7.2,19.4,9.7c16,5.7,44.6-15.6,56.4-6.2c25.1,20.1,45.8,15.7,58.5-13.7c3.5-8.2-7.9-15.4-12.3-7.2
				c-10.9,20.6-22.8,19.9-39.3,6.3c-7.2-5.9-14.1-6.2-22.8-4.9c-4.3,0.6-9.7,5-13.6,7c-13.9,7.5-26.3,2.5-38.2-5.1
				c-10.7-6.9-20.6-10.6-32.8-7.3c-13.8,3.7-18.2,27.5-35.9,24c-13.3-2.6-22.7-11.8-37.2-13.4c-13.2-1.5-27.9,7-39.1,12.7
				c-10,5-19.2,9.4-30.6,10.5c-18,1.7-21.5-19.4-28.3-30c-1.4-2.1-4-4.1-6.7-3.8c-10.1,1.2-50.4,13.3-44.2-2.3
				c2.6-6.6,4.4-12,4.6-17.7c4.1,0.6,8.6-3.5,5.8-8.1c-5.7-9.2,11.6-41.6,15.4-50.5c4.8-11,9.6-21.8,13.8-33.1
				c6.6-17.8,16.6-34.1,21-52.4c1.5,2.4,3.2,4.8,5,7c1.9,2.2,6.5,1.2,6.9-1.8c0.4-2.4,0.5-4.8,0.5-7.2c70,2.5,143.2,0.6,212.3-5.8
				c22.3-2.1,28.5,3.8,34.2,24.9c2.6,9.5,7.4,18.1,12,26.9c-11.6,6.5-14.1,15.8-33.1,5.3c-10.7-5.9-18.2-7.6-30.2-5.2
				c-6.7,1.3-18.3,16.5-23.4,14.2c-10.9-4.8-21.8-21.3-35.3-20.1c-11.6,1-22.5,3.9-32.6,9.6c-23.1,13-21.9-4.8-36.2-13.1
				c-9.1-5.3-15.7,0.6-23.3,5.6c-12.9,8.4-26.2,20-42.1,10.1c-6.8-4.2-16.6-4.3-23.9-7.8c-3.3-1.5-6,2.1-3.8,4.9
				c17.1,20.8,42,25.6,64.9,13.8c5.3-2.7,19.1-17.7,24.7-8.8c3.8,6.1,6.3,10.3,12,14.7c9.1,7,20,2.5,29-1.8
				c18.4-8.8,29.3-17.1,47.7-2.9c8.1,6.2,19.8,16,30.4,9.7c3.9-2.3,6.3-6,8.8-9.6c8.8-12.3,23.9-1.5,34.3,2.8c12,5,23.8,4,34.7-3.2
				c1.9-1.2,3.6-3.4,3.4-5.8c0-0.2,0-0.3,0-0.5c1.7,3.8,3.2,7.7,4.3,11.8c7.8,30,23.2,58.8,36.9,86.5
				C3634,3702.2,3648.3,3693.9,3643.6,3684.4z M2754.6,3129.5c0.5,0.2,1,0.4,1.7,0.4c7,0.3,14.5,0.2,21.6,1
				c-1.3,25.5-2,51.2-1.9,76.8c-6.6,2-13.1,3.9-19.6,5.8c-1.1-11.8-3.4-23.6-4.7-35.4C2750.3,3167.1,2744.7,3139.3,2754.6,3129.5z
				 M2553.1,3168.2c-0.5-12.9-1.1-25.8-1.8-38.6c37.8,3.9,15.5,62.6,16,96.3c-1.8-0.5-3.5-1.1-5.3-1.6c-4.4-1.4-9.2-2.8-14-4.1
				C2550.2,3202.4,2553.8,3186.3,2553.1,3168.2z M2989.8,3603.6c-20.8,0.2-41.7,0.9-62.4-1.3c-30.9-3.2-62-5.3-92.8-9.6
				c-30.5-4.3-61.5-2.7-92.2-2.6c-28.9,0-57-6.9-86-6.9c-70.2,0.1-139.1,4.9-208.9,13.1c-35.9,4.2-71.8,8.1-107.8,12
				c-20.8,2.2-41.7,2.9-62.6,3.7c16.8-4.4,32.9-11.7,47.7-23.3c35.6-27.8,60.8-65.9,84-104.1c26.1-42.9,47.6-87.2,61.8-135.6
				c7.2-24.7,11.6-50.4,10.6-76.2c-1-24.5-6.2-49.2-4-73.7c10,5.8,18.1,13.9,27.6,20.9c14,10.3,36.7,13.7,53,19.3
				c4.7,1.6,9.4,3,14.1,4.3c2.4,3,5.7,4.9,10.5,5.4c1.6,0.2,3-0.7,3.9-1.9c28.8,6.1,58.1,6.7,87.9,3c36.5-4.5,73-15.1,108.1-26
				c0.5,0.1,1.1,0.2,1.6,0.1c4.1-0.1,6.2-1.2,9.8-3.4c0.2-0.1,0.3-0.2,0.4-0.3c13.5-4,27.1-7.7,40.3-12.4c6.9-2.4,15.5-9.6,19.4,0.9
				c2.9,7.9,0.8,19,0,27.2c-2.4,23.9,0.9,47.8,5,71.6c-0.7,0.3-1.3,0.5-2,0.9c-10.7,5.7-22.7,3.8-34.8,3.9c-35.5,0-71.1,0-106.6,0.1
				c-73.8,0-149.8-4.1-223.2,3.4c-5.6,0.6-5.6,8.1,0,8.7c70.5,7.2,143.5,3.3,214.4,3.4c33.3,0,66.6,0,99.9,0.1l47,0
				c2.2,0,3.9-0.9,5.5-2.3c0.8-0.7,1.7-1.3,2.6-1.8c1.1,6.3,2.2,12.6,3.2,18.9c3.2,20.5,6.9,40.9,11.4,61.1
				c-65.4-5-133.2,0.1-198.7,0.4c-70.5,0.3-142.8-3.3-213.1,2.5c-4.8,0.4-4.8,7,0,7.4c67.2,5.6,136.4,2.2,203.8,2.5
				c69.6,0.3,141.7,5.9,211.1,0.2c3.6,14.7,7.8,29.2,12.8,43.6c9.8,28.4,22.4,56.6,38.9,81.8c-21.8-1-43.5-3.6-65.2-5.4
				c-29.4-2.4-59.2-1.1-88.6-1c-55.6,0-111.2-2-166.3,5.8c-29.2,4.2-56.9,8.3-86.5,8.4c-24.9,0.1-50.1-0.8-74.9,1.5
				c-23.9,2.1-48.1,12.6-71.6,13.4c-12.1,0.5-24.6,1.6-34.2,9.6c-3.3,2.7,1,8,4.5,5.8c12.7-7.8,34.1-4.9,48.8-8
				c24.6-5.2,49.2-9.6,74.4-10c22.8-0.4,45.6,0.2,68.4,0.3c25.4,0.1,49.4-4.6,74.5-8.4c53.7-8.2,108.7-5.2,162.8-5.2
				c26.6,0,53.3-0.6,79.9,0.6c28,1.2,55.6,5.6,83.6,6.4C2954.5,3574.7,2970.7,3590.9,2989.8,3603.6z"/>
			<path fill="#80D1F5" d="M3235.9,3601.9c-15.5,1.5-30.1,17.1-39,28.8c-8.6,11.4-14.8,25-23.1,36.8c-0.3-2.5-0.6-4.7-0.8-6.6
				c-3.8-42-8.1-82.6-8.2-125c0-7-10.9-7-10.9,0c0,37,0.1,74.2,5.2,110.9c0.9,6.2,1.5,12.4,1.8,18.5c-0.2-0.2-0.5-0.3-0.7-0.4
				c-3.8-1.5-9.7-8.7-12.8-11.6c-7-6.5-13.3-13.7-19.5-21c-8.9-10.5-25.7-27.3-27.8-41.7c-0.5-3.8-6.7-2.8-6.6,0.9
				c0.3,17.3,16.6,36,26.6,48.7c9.1,11.6,23.1,33.4,40.2,30.8c0.4-0.1,0.7-0.2,1-0.3c0.1,3.8,0,7.5-0.3,11.2c-1.2,1-2.5,2-3.8,3
				c-4,2.8-1.9,8.3,2.5,8.4c-0.9,5.2-2.3,10.3-4.2,15.3c-0.5,1.4,0.1,3,1.1,4l1,1c2.1,2.2,5,2.2,7.6,1c9.5-4.2,11.1-16.6,10.6-29
				c8.4-7.4,14.2-18.4,19.6-27.8c9.3-15.9,22.1-43.4,41.5-49.1C3240.4,3607.7,3239.9,3601.5,3235.9,3601.9z"/>
			<path fill="#80D1F5" d="M3604.5,3645.9c-5.5-1.8-13.9-5.1-19.8-3.5c-7.1,2-12.7,16.2-22.4,7.3c-10.4-9.6-19.3-8.4-32.8-5.7
				c-17.4,3.5-32.8,24.1-48.7,5.6c-7.5-8.7-14.8-13-26.2-14.5c-12.1-1.6-24,7.5-32.8,14.4c-20.7,16.5-27.5,3.2-44.4-9.6
				c-26.3-19.9-67.8,38.1-89,7.4c-3.5-5.1-10.7-1.9-9.7,4.1c5.1,28.3,45.7,23,64.7,11.8c13.8-8.1,19.2-13.6,31.6-1.2
				c6.2,6.2,11.5,10.9,19.1,15.4c11,6.6,24.1-0.2,32.7-7.4c8.4-7,16-14.9,27.7-16.2c7.7-0.9,17.4,13.9,22.9,18.3
				c8.5,6.7,21.7,7.5,31.2,2.1c8.4-4.8,16.2-10.1,25.4-13.7c13.2-5.1,18.6,4.2,28.5,8.3c11.3,4.7,31.4-11.4,41.9-14.8
				C3608.6,3652.7,3608.6,3647.2,3604.5,3645.9z"/>
		</g>
	</g>
	<g>
		<path fill="#FFFFFF" d="M2479.9,2526.5c-2.9,8.3-5.3,16.2-7.4,23.4c-1.4,4.8-3.8,12.8-5.6,17.8c-7,5.6-16.8,12.1-28.7,19.1
			c5.2-8.8,10.2-17.8,14.8-27C2458.1,2554.3,2467.8,2543,2479.9,2526.5z"/>
		<g>
			<path fill="#414341" d="M1339.5,2680.2c-0.8,0-1.7-0.1-2.5-0.2c-71.5-12-141.2-86.6-144.1-89.7c-4.2-4.6-5.2-11.3-2.4-16.9
				c2.8-5.6,8.8-8.7,15-8.1c30.8,3.6,90-12.6,110.1-19c7.9-2.5,16.3,1.8,18.8,9.7c2.5,7.9-1.8,16.3-9.7,18.8
				c-2.4,0.8-45,14.3-84.6,19.2c24.7,21.4,64,50.2,101.8,56.6c8.1,1.4,13.6,9.1,12.3,17.2C1353,2675.1,1346.7,2680.2,1339.5,2680.2z
				"/>
		</g>
		<path fill="#FEDDBC" d="M1835.8,2062.7c-9.7-5.7-187.1,344.2-303.1,415.3c0,0,149.7,333,475.2,291.8
			c325.5-41.2,434-303.1,434-303.1s-22.4-239.5-269.4-299.3l22.4,59.9C2195,2227.3,2075.3,2204.9,1835.8,2062.7z"/>
		<path fill="#FEDDBC" d="M1892,3323.6l-37.4,249.4l29.9,10l79.8-219.5C1964.3,3363.5,1914.4,3331.1,1892,3323.6z"/>
		<path fill="#FEDDBC" d="M2069.1,3353.6l42.4,229.5l39.9-2.5l-2.5-209.5C2148.9,3371,2094,3358.6,2069.1,3353.6z"/>
		<path fill="#FEDDBC" d="M2298.5,2717.5l17.5,84.8c0,0,237-112.2,244.5-117.2c7.5-5,27.4,15,77.3,17.5c49.9,2.5,49.9-2.5,42.4-20
			c-7.5-17.5-24.9-32.4-24.9-32.4s79.8-27.4,77.3-42.4c-2.5-15-44.9-24.9-44.9-24.9l-24.9,7.5c0,0,29.9-74.8,12.5-84.8
			c-17.5-10-82.3,57.4-82.3,57.4s5-62.4-27.4-59.9c-32.4,2.5-52.4,107.3-52.4,107.3L2298.5,2717.5z"/>
		<path fill="#FEDDBC" d="M1670,2759.9c0,0-149.7-62.4-169.6-77.3c-20-15-2.5-67.3-32.4-72.3c-29.9-5-39.9,24.9-37.4,44.9
			c0,0-49.9-32.4-84.8-34.9c-34.9-2.5,2.5,57.4,2.5,57.4s-59.9,7.5-52.4,37.4c7.5,29.9,59.9,39.9,59.9,39.9s-12.5,42.4,12.5,57.4
			c24.9,15,89.8-52.4,89.8-52.4s104.8,69.8,154.7,69.8c49.9,0,84.8,12.5,84.8,12.5S1684.9,2767.4,1670,2759.9z"/>
		<path fill="#F6B992" d="M2442,2466.8c0,0-22.4-239.5-269.4-299.3l22.4,59.9c0,0-119.7-22.4-359.2-164.6c-1-0.6-4,3-8.6,9.6
			c121.2,132.1,289,220.7,466.5,245.8c34.4,83.8,18.8,183.5-30.3,259.7c-49.1,76.1-128.6,129.7-214.5,158.3
			c-56.7,18.9-116.2,27.4-176.1,29.2c41.1,8.4,86.1,10.8,135.1,4.6C2333.5,2728.7,2442,2466.8,2442,2466.8z"/>
		<path fill="#F6B992" d="M2732.6,2607.7c-2.5-15-44.9-24.9-44.9-24.9l-24.9,7.5c0,0,1.2-3.1,3-7.9c-29.8,12.2-58.4,27.4-85.1,45.4
			c-84.5,53.5-180.1,89.4-278.9,105l14.3,69.5c0,0,237-112.2,244.5-117.2c7.5-5,27.4,15,77.3,17.5c49.9,2.5,49.9-2.5,42.4-20
			c-7.5-17.5-24.9-32.4-24.9-32.4S2735.1,2622.7,2732.6,2607.7z"/>
		<path fill="#F6B992" d="M1697.4,2842.2c0,0-6.1-36.7-15-61.3c-13.2-1.6-27.5,0.3-41,0.5c-41.1,0.7-80-23.9-118-39.6
			c-48.5-20-97.4-31.3-145.9-51.3l-37.8-11.5c-16.2,3.3-49.7,13.1-44,35.9c7.5,29.9,59.9,39.9,59.9,39.9s-12.5,42.4,12.5,57.4
			c24.9,15,89.8-52.4,89.8-52.4s104.8,69.8,154.7,69.8C1662.5,2829.7,1697.4,2842.2,1697.4,2842.2z"/>
		<path fill="#F6B992" d="M1884.5,3583l79.8-219.5c0,0-21.3-13.8-42.3-25.5c-1.9,1-3.7,2.2-5.3,3.7c-9.3,80.2-22.9,159.8-40.4,238.6
			L1884.5,3583z"/>
		<path fill="#F6B992" d="M2133.4,3581.7c0-3.8-0.2-7.6-0.7-11.1c-8.3-64.7-16.6-129.4-24.9-194.1l-14.7-17.8c-9-2-17.5-3.8-24-5.1
			l42.4,229.5L2133.4,3581.7z"/>
		<path fill="#F69A9C" d="M1847.1,2062.7c0,0-97.3,209.5-164.6,284.4c-67.3,74.8-138.4,131-138.4,131s63.6,134.7,138.4,183.3
			c74.8,48.6,127.2,97.3,127.2,97.3l-112.2-18.7l-16.2,20l-169.6-77.3c0,0-3.7-67.3-32.4-72.3c-28.7-5-37.4,44.9-37.4,44.9
			s-69.8-27.4-84.8-34.9c-15-7.5-26.7,35.4-5.9,58.8c0,0-95.1-58.8-125.1-88.8l101-33.7c0,0-97.3-26.2-131-48.6
			c-33.7-22.4-71.1-59.9-71.1-59.9s56.1,26.2,131-7.5c0,0-172.1-74.8-205.8-101c-33.7-26.2-33.7-26.2-33.7-26.2s89.8,3.7,164.6-7.5
			c74.8-11.2,127.2-56.1,127.2-56.1s-142.2,11.2-194.6-26.2c0,0,228.2-86.1,288.1-145.9c59.9-59.9,59.9-258.2,348-314.3
			c288.1-56.1,321.8-41.2,520.1,37.4c198.3,78.6,288.1,340.5,269.4,475.2c-18.7,134.7-86.1,190.8-86.1,190.8s3.7-232-269.4-299.3
			l22.4,59.9C2206.3,2227.3,2049.1,2197.4,1847.1,2062.7z"/>
		<g>
			<path fill="#F48284" d="M2269.9,1800.8c-179.7-71.2-224.2-90.2-445.4-51.3L1806,1764c245.3-24.4,498.1,123.6,597,349.3
				c-70.7-27.7-141.4-55.5-212.1-83.2c37.2,24.9,69.4,57.3,94,94.7c-96.3,4.4-193.9-25.8-271-83.7c20.4,28.6,40.9,57.2,61.3,85.8
				c-71.6-8.5-142.2-26-209.6-51.9c193,124.3,340.6,152.4,340.6,152.4l-22.4-59.9c273.1,67.3,249.4,313,249.4,313
				s87.3-69.8,106-204.5C2558,2141.3,2468.2,1879.4,2269.9,1800.8z"/>
			<path fill="#F48284" d="M1838,2063.7c1.7,2.4,3.5,4.7,5.3,7.1c0.8-1.7,1.4-3,2-4.2C1842.8,2065.6,1840.4,2064.7,1838,2063.7z"/>
		</g>
		<path fill="#F48284" d="M1682.4,2347.1c57.2-63.5,135.8-223.9,158.3-271.1c0.7-5.4,1.3-10.8,2.1-16.1
			c-150,130.5-312,266.7-509,293.8c-99.7,13.7-201.3-2.1-298.5-27.8c134.2,97.6,308.2,138.7,471.9,111.6
			c-50.5,43-118.9,60.1-185.2,60.3c-57.2,0.2-113.6-11.2-169.5-24c7.3,6.4,15.5,13.3,24,20c111.4,53.6,233.5,84.8,356.9,90.8
			c-88.4,45.1-198.5,44.4-286.6-1.2l-8.8,2.9l-6.6,9.1c34.5,31,119.6,83.7,119.6,83.7c-20.9-23.5-9.1-66.3,5.9-58.8
			c15,7.5,84.8,34.9,84.8,34.9s8.7-49.9,37.4-44.9c28.7,5,32.4,72.3,32.4,72.3l169.6,77.3l16.2-20l112.2,18.7
			c0,0-52.4-48.6-127.2-97.3C1607.6,2612.7,1544,2478,1544,2478S1615.1,2421.9,1682.4,2347.1z"/>
		<circle fill="#F69A9C" cx="1692.4" cy="2465.6" r="44.9"/>
		<circle fill="#F69A9C" cx="2261.1" cy="2420.7" r="44.9"/>
		<path fill="#F69A9C" d="M1824.6,2759.9l-127.2-20l5,124.7c0,0,112.2,7.5,139.7,49.9c27.4,42.4,15,114.7-64.9,144.7
			c-79.8,29.9-199.6,34.9-199.6,34.9s22.4,82.3,67.3,117.2c44.9,34.9,72.3,34.9,72.3,34.9s42.4,64.9,94.8,72.3
			c52.4,7.5,92.3,7.5,92.3,7.5s-20,27.4,59.9,37.4s128.8-4.9,128.8-4.9s33.4,9.9,73.3,2.4c39.9-7.5,62.4-39.9,62.4-39.9
			s127.2-104.8,144.7-132.2c17.5-27.4-37.4-132.2-94.8-167.1c-57.4-34.9-104.8-49.9-104.8-49.9s-12.5-74.8-5-87.3
			c7.5-12.5,104.8-24.9,104.8-24.9l37.4-24.9l-29.9-134.7c0,0-182.1,67.3-254.4,72.3C1954.3,2777.4,1824.6,2759.9,1824.6,2759.9z"/>
		<path fill="#F48284" d="M2060.5,3096.8c77.3-13.1,155.8-33,223.3-71.3c-1.8-1.2-3.5-2.5-5.3-3.6c-57.4-34.9-104.8-49.9-104.8-49.9
			s-12.5-74.8-5-87.3c7.5-12.5,104.8-24.9,104.8-24.9l37.4-24.9l-29.9-134.7c0,0-182.1,67.3-254.4,72.3c-15.8,1.1-34.4,1.1-53.7,0.4
			l-1.2,13.3c6.4,34.1,24.4,66,50.2,89.1c26.9,24.1,63.8,41.5,74.9,75.8c11.4,35-11.1,73.8-42.3,93.3
			c-31.2,19.5-69.2,24.2-105.8,28.4C1972.4,3105.4,2020.9,3103.5,2060.5,3096.8z"/>
		<path fill="#F69A9C" d="M1820.9,3029.3c0,0-94.8,66.1-140.9,64.9s-94.8-2.5-94.8-2.5s26.2,92.3,59.9,119.7
			c33.7,27.4,67.3,37.4,67.3,37.4s41.2,48.6,93.5,59.9c52.4,11.2,92.3,12.5,92.3,12.5s39.9,51.1,103.5,49.9
			c63.6-1.2,74.8-16.2,78.6-17.5c3.7-1.2,56.1,23.7,91,6.2c34.9-17.5,49.9-38.7,49.9-38.7s128.5-91,158.4-126
			c0,0-18.7-78.6-73.6-143.4c-54.9-64.9-116-67.3-116-67.3S2062.8,3087.9,1820.9,3029.3z"/>
		<path fill="#F48284" d="M2387.1,3195.2c0,0-18.7-78.6-73.6-143.4c-54.9-64.9-116-67.3-116-67.3s-69.1,56.1-202.1,62.3l-0.4,0.5
			c54.8,12.5,104.4,51.9,122.4,105.1c18,53.2-0.2,118.5-47.1,149.4c-20,13.2-45.5,19.9-68.5,13.1c-12.2-3.6-23-10.6-34.9-15
			c-37.1-13.7-77.8-0.2-116.5,7.4c-9.1,1.8-18.6,2.9-28.2,3.4c48,9.5,83.5,10.7,83.5,10.7s39.9,51.1,103.5,49.9
			c63.6-1.2,74.8-16.2,78.6-17.5c3.7-1.2,56.1,23.7,91,6.2c34.9-17.5,49.9-38.7,49.9-38.7S2357.2,3230.1,2387.1,3195.2z"/>
		<path fill="#F69A9C" d="M1827.1,2766.1l114.7,89.8l62.4-74.8c0,0,68.6,74.8,76.1,74.8c7.5,0,54.9-47.4,54.9-47.4l46.1-74.8
			c0,0-153.4,42.4-220.8,38.7C1893.2,2768.6,1827.1,2766.1,1827.1,2766.1z"/>
		<path fill="#F599AC" d="M2071.8,2845.8c4.6,3.3,9.4,6.6,15,7.4c10.7,1.5,20-6.7,27.7-14.3c15.1-14.9,30.3-29.9,42.1-47.6
			c11.8-17.6,20.1-38.3,19.8-59.5c-73.4,28.3-151.9,43.3-230.6,44.1c2.3,28-6.4,56.8-23.9,78.9c16.7,2.2,31.1-11.7,40.2-25.9
			c9.1-14.2,16.9-30.6,31.8-38.4C2019.9,2808.9,2045.8,2827.3,2071.8,2845.8z"/>
		<path fill="#F7C0D8" d="M1863.1,3587.2c-10.2-4.2-21.7,0.6-31.6,5.5c-11.3,5.6-22.6,11.6-31.7,20.3
			c-22.5,21.6-27.3,55.2-30.7,86.2c-1,8.5-1.2,18.7,5.6,23.9c7.4,5.6,18,1.5,26.2-3c20.1-11.1,39.7-23.8,54.7-41.2
			c15-17.3,25.3-39.8,23.9-62.7C1878.8,3604.5,1874,3591.6,1863.1,3587.2z"/>
		<path fill="#F7C0D8" d="M2203.8,3725.2c11.4-12,7.7-31.4,1.9-46.9c-10-27-24-52.5-41.3-75.5c-6-7.9-13.5-16.1-23.3-16.6
			c-10.4-0.5-19.4,8.3-22.5,18.2c-3,9.9-1.4,20.7,0.9,30.8c4.4,19.7,10.8,38.9,19.1,57.3c6,13.1,13.4,26.4,25.4,34.3
			C2176,3734.8,2193.8,3735.6,2203.8,3725.2z"/>
		<path fill="#F599AC" d="M1819.5,3719.8c30.2-19.4,52.4-50.8,60.8-85.7c2.5-10.5,3.7-21.9-1-31.6c-4.7-9.7-17.2-16.1-26.7-11.1
			c5.4,5.7,6.3,14.4,4.3,22c-2,7.5-6.5,14.1-11,20.5c-10.1,14.3-20.6,28.4-31.5,42.1c-10.6,13.3-24.6,27.7-41.4,25.5
			c-6.9,9.6,1.7,24.2,13.2,27C1797.7,3731.5,1809.6,3726.2,1819.5,3719.8z"/>
		<path fill="#F599AC" d="M2183.8,3721.9c0,1.9,0,3.9,0.7,5.6c1.8,4.1,7.4,5.2,11.4,3.4c4-1.8,6.7-5.7,8.7-9.7
			c11.4-23.2,4.6-51-4.7-75.1c-6.3-16.3-13.9-32.8-27-44.4c-13.1-11.6-32.9-17.2-48.5-9.3
			C2161.6,3624.3,2183.9,3672.9,2183.8,3721.9z"/>
		<path fill="#FFFFFF" d="M1805.9,1748.4c0,0-243.2,93.5-276.9,209.5c-33.7,116-149.7,269.4-411.6,246.9c0,0,228.2-37.4,284.4-127.2
			C1457.9,1987.9,1536.5,1767.1,1805.9,1748.4z"/>
		<path fill="#FFFFFF" d="M1581.4,2459.3c0,0,131,280.6,426.5,310.6c0,0-198.3,3.7-325.5-93.5c-127.2-97.3-149.7-198.3-149.7-198.3
			L1581.4,2459.3z"/>
		<path fill="#FFFFFF" d="M1716.1,2756.8c0,0,11.2,84.2,16.8,80.4c5.6-3.7,97.3,22.4,129.1,56.1c31.8,33.7,31.8,97.3-24.3,162.8
			c-56.1,65.5-218.9,71.1-218.9,71.1s37.4,95.4,119.7,89.8c0,0,58,89.8,131,97.3c0,0-67.3-1.9-104.8-24.3
			c-37.4-22.4-47.4-43.7-47.4-43.7s-48-1.2-85.4-44.3c-37.4-43-54.3-107.9-54.3-107.9s93.5,12.5,151.5-8.1
			c58-20.6,97.3-65.5,97.3-65.5s42.4-69.8,15.6-106c-26.8-36.2-139.7-49.9-139.7-49.9S1654.4,2738.1,1716.1,2756.8z"/>
		<path fill="#FFFFFF" d="M1336.3,2625.8c0,0,67.3,52.4,84.2,61.7c16.8,9.4,28.1,3.7,35.5-5.6c7.5-9.4-9.4-39.3,3.7-41.2
			c13.1-1.9,0,46.8,26.2,61.7c26.2,15,177.7,74.8,194.6,69.2c16.8-5.6-61.7-33.7-61.7-33.7l-107.3-55.5c0,0,0-69.2-32.4-72.3
			c-32.4-3.1-53.6,16.2-51.1,30.6c2.5,14.3,0,24.3,0,24.3S1362.5,2592.1,1336.3,2625.8z"/>
		<path fill="#FFFFFF" d="M1843.3,3593c0,0-33.7,73-63.6,93.5C1749.8,3707.1,1785.3,3596.8,1843.3,3593z"/>
		<path fill="#FFFFFF" d="M2123.9,3617.3c0,0,43,46.8,50.5,97.3C2174.5,3714.6,2107.1,3662.2,2123.9,3617.3z"/>
		<path fill="#FFFFFF" d="M2359.7,2708.1c-1.5,9.2,151.5-61.7,174-84.2c22.4-22.4,18.7-82.3,28.1-84.2c9.4-1.9-3.7,48.6,16.8,48.6
			c20.6,0,78.6-48.6,91.7-63.6c13.1-15-7.5-18.7-7.5-18.7L2586,2566c0,0-1.9-62.4-20.6-63c-18.7-0.6-50.5,94.8-50.5,94.8
			S2361.5,2696.9,2359.7,2708.1z"/>
		<g>
			<path fill="#414341" d="M1976.2,2785.1c-306.4,0-424.5-246-441.3-285.3c-8.4,6.6-16.9,12.9-25.6,18.8c-6.8,4.7-16.1,2.9-20.8-3.9
				c-4.7-6.8-2.9-16.1,3.9-20.8c182.3-124.8,317.2-418.6,325.9-446.2c0.9-5.1,4.2-8.8,9-10.7c4.8-2,10.2-0.6,14.4,2.5
				c1.7,1.2,161.7,118.6,337.2,177.4c-5.9-12.9-16.6-30.8-36.1-52c-4.5-4.9-5.2-12-1.9-17.7c3.3-5.7,10-8.5,16.4-7
				c2.7,0.6,271,67.5,291.3,306.5c0.1,1.3,0.1,2.5-0.2,3.8c-0.5,2.9-54.2,292.4-405.1,330.9
				C2019.9,2783.9,1997.6,2785.1,1976.2,2785.1z M1558.6,2480.3c0.9,1.2,1.6,2.5,2.2,3.9c4.7,12.6,119.6,306.9,479.1,267.4
				c314.8-34.6,373.7-281.2,378.6-304.5c-14.5-158.2-150.4-233.4-223-262.6c19.4,31.5,20.4,51.9,20.5,54.8c0.1,4.7-2.1,9.3-5.9,12.1
				c-3.8,2.9-8.7,3.8-13.3,2.4c-160.5-47.7-309.6-146.1-357.3-179.3C1810,2141.9,1703.4,2353.9,1558.6,2480.3z"/>
		</g>
		<g>
			<path fill="#414341" d="M2408.5,2538.7c-3.8,0-7.6-1.4-10.5-4.3c-5.9-5.8-6-15.3-0.2-21.1c1.7-1.7,167.2-174,96.7-417.6
				c-31.9-110.3-120.7-211.8-243.6-278.3c-136.4-73.8-295-94.3-424.3-54.8c-0.9,0.3-1.8,0.5-2.8,0.6c-2.8,0.3-283.4,32.6-363.6,232
				c-62.1,154.5-227.6,201.8-322.3,216.3c57.4,16.4,142.4,30.9,203.7-2.3c6.9-3.8,15.6-1.5,19.8,5.1c4.2,6.6,2.6,15.4-3.7,20.1
				c-6.6,4.9-143.3,104.5-294.9,90.4c74.5,49.9,212.5,124.6,336.1,95.1c8.1-1.9,16.1,3,18,11.1c1.9,8-3,16.1-11.1,18
				c-194.3,46.3-408.4-134.3-417.4-142c-5.5-4.7-6.8-12.6-3.3-18.8c3.6-6.2,11.1-9.1,17.9-6.7c89.9,31.3,183.2,6.4,248.7-22.2
				c-0.4,0-0.9,0-1.4,0c-92.3,0-182.3-40.3-187.5-42.7c-6.4-2.9-9.9-9.9-8.4-16.7c1.4-6.9,7.5-11.8,14.5-11.9
				c2.8,0,283.8-5.5,363.7-204c84.8-210.7,361.5-247.5,386.8-250.4c136.5-41.3,303.1-19.8,446,57.5
				c129.9,70.3,224,178.3,258.1,296.3c75.5,260.9-102.3,445.1-104.2,446.9C2416.2,2537.2,2412.4,2538.7,2408.5,2538.7z"/>
		</g>
		<g>
			<path fill="#414341" d="M1463.6,2589c-230.7,0-360.1-129.4-365.8-135.2c-4.5-4.6-5.6-11.6-2.6-17.4c3-5.7,9.4-8.9,15.7-7.8
				c75,12.6,125-7.1,125.5-7.4c7.6-3.1,16.4,0.6,19.5,8.2c3.1,7.6-0.5,16.3-8.1,19.5c-1.8,0.8-36.4,14.8-92,13.8
				c56.4,40.3,175.9,105.9,345.9,95.1c8.2-0.5,15.4,5.7,15.9,14c0.5,8.2-5.7,15.4-14,15.9C1490,2588.6,1476.6,2589,1463.6,2589z"/>
		</g>
		<g>
			<path fill="#414341" d="M2135,3383.5c-25,0-44.7-10.9-54.9-18c-113.1,38.7-167.3-10.8-184-31.4c-119.1,8.8-174.6-53.7-189.8-74.8
				c-115.3-15.8-144.2-164.5-145.4-170.9c-0.9-4.9,0.7-10,4.3-13.5c3.6-3.5,8.7-5,13.6-3.9c145.5,31.2,206.6-26.5,230.1-63.7
				c24.6-38.9,23-77.4,17-85.3c-16.3-21.1-82.6-32.6-120.6-34.8c-5.6-0.3-10.6-3.8-12.8-9c-26.3-60.2-17.8-140.8-17.4-144.2
				c0.5-4.6,3.1-8.8,7.1-11.2c4-2.4,8.9-2.8,13.2-1.1c48.9,19.1,149.3,20.5,150.3,20.5c8.3,0.1,14.9,6.9,14.8,15.2
				c-0.1,8.2-6.8,14.8-15,14.8c-0.1,0-0.1,0-0.2,0c-3.9,0-85.7-1.3-141.7-16.4c-0.8,23.9,0,66.7,12.9,102.2
				c28.7,2.5,107.4,12.3,133,45.7c15.9,20.6,14.5,72.2-15.4,119.5c-26.3,41.7-91.6,105.4-238.1,81.5
				c12.2,39.5,45.8,119.2,120.1,125.5c4.9,0.4,9.3,3.2,11.7,7.4c1.8,3.1,47.6,78.3,174,65.8c5.8-0.5,11.4,2.3,14.4,7.3
				c1.6,2.7,42.9,67.6,161.4,23.8c5.3-2,11.2-0.8,15.4,3.1c0.1,0.1,20.5,18.2,47.2,15.7c20.8-1.9,40.9-15.5,59.8-40.4
				c1.7-2.2,4-3.9,6.6-4.9c1.2-0.5,114.6-44.5,154.9-109.7c-11.8-33-71.7-187.3-163.8-202.7c-44.4-7.5-53.6-72.5-52-109.7
				c1.4-32.5,43.4-37.9,88-43.5c24.7-3.1,52.3-6.6,68.5-14.4l-27.8-110.5l-55.8,21.2c-7.7,3-16.4-0.9-19.3-8.7
				c-2.9-7.7,0.9-16.4,8.7-19.3l71.5-27.2c4-1.5,8.5-1.3,12.2,0.7c3.8,2,6.6,5.5,7.6,9.6l34.6,137.3c1.4,5.6-0.5,11.6-5,15.2
				c-20.4,16.7-56.5,21.3-91.4,25.7c-20.5,2.6-58.5,7.4-61.8,15c-1.5,35.6,8.4,75.9,27,79.1c120.6,20.3,186.7,220.7,189.5,229.2
				c1.3,3.9,0.9,8.1-1.1,11.7c-38.6,71.2-147.1,118.2-169.7,127.3c-23.7,29.9-50.1,46.3-78.8,48.8
				C2139.9,3383.4,2137.4,3383.5,2135,3383.5z"/>
		</g>
		<g>
			<path fill="#414341" d="M1685.6,2858.5c-0.5,0-1,0-1.4-0.1c-82.6-7.9-187.9-68.2-222.1-88.9c-22.9,25.7-70.5,72.3-103,56.7
				c-9.5-4.5-16.2-12.3-19.3-22.3c-3.4-11.3-1.7-24.2,1.6-35.8c-5.5,0.4-11.4,0.1-17.5-1.3c-16.4-3.8-29.9-14.5-40-31.8
				c-10.3-17.7-7.1-31.1-2.5-39.2c8.1-14.5,26.5-22.4,44.1-26.7c-6.6-7-11.9-15.4-13.3-24.8c-1.2-8.2,0-20.5,12.9-32.2
				c26.2-23.8,65.3-0.5,92,21.6c1.6-10.2,5.3-18.5,11-25.3c9.7-11.4,24.6-16.7,44-16.5c28.2,0.7,30.9,27.3,32.5,43.2
				c2,20.2,4.5,34.1,20.1,42.4c43.3,23,160.7,70.2,161.9,70.7c7.7,3.1,11.4,11.8,8.3,19.5c-3.1,7.7-11.8,11.4-19.5,8.3
				c-4.9-2-120.1-48.3-164.8-72c-30.8-16.4-33.8-46.1-35.8-65.8c-0.6-5.8-1.5-14.7-3-16.8c-10.4,0.2-17.3,2.2-20.9,6.4
				c-5.3,6.3-6.3,20.2-2.7,39.1c1.2,6.6-2,13.1-8,16.1c-6,3-13.2,1.7-17.7-3.2c-24.3-26.3-65.6-56.3-77.3-45.6
				c-2.5,2.3-3.7,4.2-3.5,5.7c1.1,7.5,18,19.9,29.7,25.5c6.2,3,9.6,9.8,8.2,16.6c-1.4,6.8-7.3,11.7-14.2,11.9
				c-23.4,0.6-52.9,7.5-57.9,16.4c-1.4,2.4,0.5,6.6,2.2,9.6c5.8,10,12.6,15.8,20.7,17.7c14.3,3.4,29-6,29.2-6.1
				c5.8-3.8,13.5-3.1,18.5,1.7c5,4.8,6.1,12.4,2.6,18.4c-7,12-15.5,33.4-12.3,43.7c0.6,2,1.6,3.1,3.5,4c10,4.6,46.7-23.8,75.6-58.7
				c4.8-5.8,13.2-7.2,19.6-3c1.3,0.8,129.3,82.5,219.9,91.2c8.2,0.8,14.3,8.1,13.5,16.3C1699.7,2852.7,1693.2,2858.5,1685.6,2858.5z
				"/>
		</g>
		<g>
			<path fill="#414341" d="M2317.8,2817.2c-5.9,0-11.5-3.5-13.9-9.3c-3.1-7.6,0.5-16.4,8.2-19.5c89.8-36.9,243.9-122.9,245.4-123.8
				c4-2.2,8.8-2.5,13.1-0.7c43.2,18.1,90.4,28.9,99.1,22.7c-0.1-0.1,0.1-0.5-0.2-1.9c-2.6-10-23.1-24.8-36.1-31.8
				c-5.9-3.1-9-9.8-7.6-16.4c1.4-6.5,6.9-11.3,13.6-11.8c38.4-2.6,72.1-13.5,74.4-20.8c-0.6-1.9-1.4-3.5-4.2-4.9
				c-12.7-6.7-44.6-1.4-63.1,4.5c-6.7,2.1-13.9-0.7-17.5-6.7c-3.5-6-2.4-13.7,2.7-18.5c22.9-21.4,39.3-47.2,36.6-53.3
				c-9.7-6.3-43.4,20.2-68.8,52.8c-4.2,5.3-11.4,7.2-17.6,4.6c-6.2-2.6-9.9-9.1-9-15.8c2.7-20,1.4-42.7-2.7-48.3
				c-0.2,0.1-0.6,0.2-1.2,0.4c-13.5,5-21.2,31-27.4,51.8c-5.9,19.8-10.9,36.9-21.7,46.8c-48.3,44.4-205.5,110.4-212.1,113.2
				c-7.6,3.2-16.4-0.4-19.6-8c-3.2-7.6,0.4-16.4,8-19.6c1.6-0.7,158.9-66.7,203.4-107.6c4.6-4.3,9.4-20.3,13.2-33.2
				c8.5-28.7,18.1-61.3,45.8-71.4c15-5.5,25.1,0,29.8,3.8c9.1,7.4,13.3,20.6,15,34.2c23.5-22.9,55.5-45.2,80.4-29.2
				c8.4,5.4,13.6,13.8,14.4,23.6c1.2,13.9-6.6,29.7-16.3,43.5c14.5-1,29.9,0.1,41.6,6.2c9.3,4.9,15.8,12.6,18.8,22.2
				c2.9,9.4,1.4,18.6-4.1,26.7c-10.5,15.2-35.5,23.6-58.2,28.2c8.3,7.9,15.6,17.2,18.3,27.4c2.5,9.2,1.1,18.2-3.8,26.1
				c-18.6,29.5-85.8,8.5-128.7-8.8c-30.4,16.9-160.3,88.1-242.4,121.8C2321.6,2816.8,2319.7,2817.2,2317.8,2817.2z"/>
		</g>
		<g>
			<path fill="#414341" d="M1785.9,3747.4L1785.9,3747.4c-8.1,0-15.5-2.7-21.4-7.8c-15.8-13.7-18-38.5-6.3-69.9
				c15.8-42.3,61.2-103.5,101.9-103.5c4.6,0,9.1,0.8,13.2,2.4c9.1,3.5,29.6,15.4,22.9,51.5
				C1887.7,3666.8,1829.9,3747.4,1785.9,3747.4z M1860.2,3596.1c-18.6,0-57.7,40.7-73.9,84c-6.6,17.7-7.5,32.2-2.1,36.8
				c0.3,0.2,0.6,0.5,1.7,0.5c21.4,0,73.4-61.5,81-102.9c2.8-15.4-2.4-17.4-4.1-18.1C1862,3596.2,1861.2,3596.1,1860.2,3596.1z"/>
		</g>
		<g>
			<path fill="#414341" d="M2192.9,3750.5L2192.9,3750.5c-42.6,0-84.3-79.9-92.9-123.4c-7.5-38.2,8-50.7,17.9-54.7
				c5-2,10.2-3.1,15.6-3.1c44.7,0,84.6,75.1,91.4,124.7c5.8,42.4-14.2,52.7-23.1,55.2C2198.9,3750.1,2195.9,3750.5,2192.9,3750.5z
				 M2133.4,3599.3c-1.5,0-2.8,0.3-4.2,0.8c-2.9,3.4-2.5,24.6,12.5,57.5c18.4,40.5,42,62.9,51.3,62.9c0.3,0,0.6,0,0.8-0.1
				c3-2.6,5.2-22.3-7.3-55.2C2172.6,3628.9,2148.9,3599.3,2133.4,3599.3z"/>
		</g>
		<g>
			<path fill="#414341" d="M1850.5,3592.2c-0.6,0-1.2,0-1.8-0.1c-8.2-1-14-8.5-13-16.7l31.1-253.2c1-8.2,8.6-14.1,16.7-13
				c8.2,1,14,8.5,13,16.7l-31.1,253.2C1864.4,3586.7,1858,3592.2,1850.5,3592.2z"/>
		</g>
		<g>
			<path fill="#414341" d="M1883.8,3600.1c-1.8,0-3.6-0.3-5.3-1c-7.7-2.9-11.6-11.6-8.7-19.3c0.7-1.9,70.6-186.5,80.5-218.5
				c2.4-7.9,10.8-12.4,18.7-9.9c7.9,2.4,12.3,10.8,9.9,18.7c-10.2,33-78.2,212.7-81.1,220.3
				C1895.5,3596.4,1889.8,3600.1,1883.8,3600.1z"/>
		</g>
		<g>
			<path fill="#414341" d="M2110.8,3608.3c-7.1,0-13.5-5.1-14.7-12.4c-0.4-2.1-36.3-209.2-40-227.9c-1.6-8.1,3.7-16,11.8-17.5
				c8.1-1.7,16,3.7,17.5,11.8c3.7,19,38.6,220,40.1,228.5c1.4,8.1-4,15.9-12.2,17.3C2112.5,3608.3,2111.6,3608.3,2110.8,3608.3z"/>
		</g>
		<g>
			<path fill="#414341" d="M2154.6,3594.9c-7.9,0-14.5-6.2-14.9-14.2c-9.8-202.9-4.8-207.4,1.6-213c3.4-3,8.3-4.4,12.7-3.7
				c8.2,1.4,13.7,9.1,12.3,17.2c-0.3,1.6-0.8,3.1-1.5,4.4c-2.1,17.5,0.7,110.3,4.7,193.7c0.4,8.2-6,15.3-14.2,15.7
				C2155.1,3594.9,2154.8,3594.9,2154.6,3594.9z"/>
		</g>
		<g>
			<path fill="#414341" d="M1940.1,2868.2c-14.2,0-44.3-14.1-118.9-86.3c-5.9-5.7-6.1-15.2-0.4-21.2c5.8-6,15.2-6.1,21.2-0.4
				c34.8,33.6,79,70.6,94.6,76.9c9-10.4,27.1-43.1,40.4-71.1c3.5-7.5,12.5-10.7,19.9-7.1c7.5,3.5,10.7,12.5,7.1,19.9
				c-8,16.9-35.3,72.9-52.9,85.4C1948.8,2866,1945.7,2868.2,1940.1,2868.2z"/>
		</g>
		<g>
			<path fill="#414341" d="M2081,2873.3c-6.2,0-12.1-2.1-17-6.1c-28.8-23.5-74.9-71.9-76.8-73.9c-5.7-6-5.5-15.5,0.5-21.2
				c6-5.7,15.5-5.4,21.2,0.5c0.5,0.5,45.5,47.8,73,70.5c13.7-3.8,49.5-52.7,78-106.9c3.8-7.3,12.9-10.1,20.2-6.3
				c7.3,3.8,10.1,12.9,6.3,20.2c-14.1,26.9-63,115.1-99.5,122.5C2084.9,2873.1,2082.9,2873.3,2081,2873.3z"/>
		</g>
		<g>
			<path fill="#414341" d="M1966.1,3063.6c-86.4,0-146.3-27-150.6-29c-7.5-3.5-10.8-12.3-7.3-19.8c3.5-7.5,12.4-10.7,19.8-7.3
				c1.7,0.8,174.9,78.1,354.7-40.6c6.9-4.5,16.2-2.6,20.7,4.3c4.6,6.9,2.7,16.2-4.2,20.7C2114.8,3047.6,2032.7,3063.6,1966.1,3063.6
				z"/>
		</g>
		<g>
			<path fill="#414341" d="M1968.1,2698.5c-185.9,0-239.7-171.6-240.3-173.5c-2.4-7.9,2.1-16.2,10-18.6c7.9-2.4,16.3,2.1,18.6,10
				c2.2,7.1,55.6,174.8,249.8,149.6c194.4-25,205-180.2,205.4-186.8c0.4-8.2,7.6-14.4,15.7-14.1c8.2,0.4,14.6,7.4,14.2,15.7
				c-0.1,1.9-11.7,186.8-231.4,215C1995.5,2697.7,1981.4,2698.5,1968.1,2698.5z"/>
		</g>
		<g>
			<path fill="#414341" d="M1989.7,2498.8c-17.6,0-34.2-4.2-43.4-10.9c-6.7-4.9-8.1-14.2-3.3-20.9c4.9-6.7,14.2-8.1,20.9-3.3
				c5.6,4.1,31.8,8.8,50.5,0.6c10-4.3,15.2-11.1,16.4-21.2c0.7-6.2-0.5-10.7-4.1-14.6c-11.5-12.8-41.6-15.1-51.5-15.2
				c-7.6-0.2-15.1-6.5-15.2-14.8c-0.1-8.3,6.5-15.1,14.8-15.2c5.4,0.1,51.7,0.1,74.2,25.1c9.3,10.3,13.3,23.5,11.5,38.2
				c-2.5,20.6-14.6,36.6-34.2,45.1C2015.2,2496.7,2002.2,2498.8,1989.7,2498.8z"/>
		</g>
		<g>
			<path fill="#414341" d="M1719.2,2398.1c-1.1,0-2.1-0.1-3.2-0.3c-8.1-1.8-13.2-9.7-11.5-17.8c7.3-33.7,22.6-56.1,45.6-66.4
				c36.7-16.5,77.6,6,79.3,7c7.2,4,9.8,13.2,5.7,20.4c-4,7.2-13.1,9.7-20.3,5.8l0,0c-0.3-0.2-29.7-16.1-52.6-5.7
				c-13.7,6.2-23.3,21.5-28.5,45.4C1732.3,2393.3,1726.1,2398.1,1719.2,2398.1z"/>
		</g>
		<g>
			<path fill="#414341" d="M2103.1,2338.1c-2.6,0-5.2-0.7-7.6-2.1c-7.1-4.2-9.5-13.4-5.3-20.5c17.5-29.7,38.9-45.6,63.7-47.3
				c43.5-2.7,77.8,40.6,79.2,42.5c5.1,6.5,3.9,15.9-2.6,21c-6.5,5.1-15.9,4-21-2.6l0,0c-7.2-9.2-31-32.4-53.7-31.1
				c-14.3,1-27.7,11.9-39.8,32.6C2113.2,2335.4,2108.2,2338.1,2103.1,2338.1z"/>
		</g>
	</g>
	<g>
		<g>
			<path fill="#80D1F5" d="M574.6,999.4c-148.7,29.5-289.7,86.3-427.3,149.4c-5.5,2.8-10.6,4.7-15.3,5.9
				c-28.4,7.6-41.1-9.6-44.2-21.2c-4-14.6-3.2-36.9,2.9-39.5c114.4-51.2,233.1-96,354.7-120.4c79.1-15.9,247.8-48.8,274.1-15.5
				c3.3,4.2-6.3,20.9-18.2,23c-17.7,3.1-48.7,5.6-83.6,10.8C604.3,994,589.6,996.4,574.6,999.4z M434.1,1071.7
				c23.9-5.2,31.1,15.1,37.7,46c2.5,11.7,4.3,22.7,5.6,28.8c30.1,137.9,81.8,277.9,120.3,396.7c7,21.5-11,42.7-36.5,48.2
				c-17.2,3.7-45.8-53.7-54.6-71.8c-47.4-103.5-67.4-220.6-92.4-330.6c-6.9-30.3-20.9-99.7,3.4-111
				C424.2,1074.8,429.3,1072.7,434.1,1071.7z"/>
			<path fill="#80D1F5" d="M1023.5,1326.9c-0.1-4.9-1.3-13.3-2.2-23.9c-46.4,85.6-113.2,219.4-205.2,236.8
				c-63.3,12-90.2-91.2-98.9-143.5c-8.8-52.6-22-150.4,40.1-161.3c30-5.2,33.9,11.3,37.3,31.5c2.5,14.9-1.3,32.7-7.7,47.3
				c-7.5,17.1-10.3,70.4-2.2,116.4c7.4,42,26.1,78.9,52.6,72.6c82.8-19.8,148.1-138,182.9-215.4c-3.8-51.5-6.4-129.7,21.2-142.7
				c4.5-1.9,9.1-3.4,13.3-4c23.1-2.9,43.1,13.5,44.9,28.5c3.2,26.5-14.1,40.2-24.6,61.7c-0.3,4.3-0.4,6.5-0.7,10.8
				c-2.2,32.5-2.9,51,1.7,87.2c1.6,12.8,3.8,26,7,38.6c22.5-61,58.3-159.4,117-174.3c27.8-7.1,42.2,64.9,44.6,88.4
				c2.4,24.3,29.2,128.8,66.9,125.3c45.7-4.2,81.2-61.8,97.4-63c2-0.2,3.6,0.9,4.7,1.9c1.3,1.2,2.2,2.5,2.4,4.7
				c1.8,24.4-70.7,102.5-116.7,104.9c-71.6,3.7-104.7-94.9-121.7-151.9c-1.4-3-4.5-12.9-6.6-12.7c-29.7,3.3-66.8,115.4-73.6,133.2
				c-4.6,12.1-0.7,68.2-0.1,78.9c0.2,3.3-3.3,5.8-8.7,6.5c-15.8,2-47.6-7.9-49.4-26.2C1032.8,1418.6,1027.1,1387.4,1023.5,1326.9z
				 M760.8,1112.2c-24.8,4.2-51.6-2.7-56.5-30.3c-3.3-18.4,3.8-34.2,35.2-39.6c24-4.1,59.8-6.4,66.1,32.2
				C808.6,1092.5,785.6,1107.9,760.8,1112.2z"/>
			<path fill="#80D1F5" d="M1656.8,1383.8c-38.6,34.8-70.2,51.5-93.8,51.4c-87.8-0.7-88.5-179.2-107.4-218.1
				c-3.1-6.3-17.9-26-19.2-44.6c-1.6-23.1,9.9-47.2,53.5-49.8c38.8-2.4,34.5,51,36.8,64.2c0.1,1.8-2.3,34-0.1,71.7
				c3.3,58.2,16.4,129.8,62.3,127.6c17.6-0.8,57.5-16.9,68.7-39.8c17.9-36.6-16.5-226.1,61.9-235c21-2.4,30.9,15.4,30.9,42
				c0,76.1-32.2,148.9-52.3,222.8c0,0-33.4,207.1-165,227.9C1401.4,1624.9,1622.7,1538.4,1656.8,1383.8z"/>
			<path fill="#80D1F5" d="M1880.2,1383.4c2.4-73.4,3.8-134.3,3.3-183.2c-0.8-75.4-4.8-152.1-16.4-226.3
				c-4.2-27.1-14.3-55.1-14.4-82.6c-0.2-30.2,22.2-33,30.9-33c40.9,0,48.8,55.7,48.7,71.2c7.4,63.5,7.8,127.9,7.8,191.2
				c0,86.1-6,173.6-14.5,260c18.7-0.8,39.8-1,63-0.7c45.9,0.7,97.8,3.8,148.4,11.6c70.6,10.8,81.8,38,81.8,38
				c0.9,2.7,1.5,6.1,1.5,9.9c0.1,7.5-3.5,18.9-20.9,18.1c-1,0-1.5-0.1-2.5-0.1c-74.4-14.3-148.2-31-223.3-41.6
				c-11.5-1.5-21.5-2-30.6-2.1c-42.1-0.3-52.7,13.1-69.2,13.2c-20,0.1-29.1-11-29.3-38.5C1844.4,1387.2,1858,1385.3,1880.2,1383.4z"
				/>
			<path fill="#80D1F5" d="M2923.8,1354.4c-0.4-0.3-2.6,0-3.8,0.7c-36.6,20.2-86.7,79.2-99.5,96.2c-7.7,10.5-17.7,56.6-20,67.2
				c-0.7,3.3-4.7,4.7-10.2,3.9c-15.8-2.3-43.8-20.4-40.4-39.8c8.4-48.3,12.9-79,19.7-117.1c-41.9,47-105.2,115.3-169.1,112.3
				c-32.7-1.6-61-39.7-71.8-127c-38.6,47.1-87.9,114.6-154.2,111.3c-80.7-4-113.4-99-109.7-170.5c4.9-94.5,72.7-208.3,181.2-199.3
				c67,5.6,94.1,75.5,89,127.8c-0.5,5.3-1.5,10.1-2.5,14.9c15.6-20.8,30.1-34.5,43.6-33.1c7.3,0.8,13.1,14.8,13.1,14.8
				c-7.3,65.6-6.6,215.4,38.9,223.6c39.6,7.1,109-68.8,150-117.1c16.8-65.6,59.1-202.9,126-203.6c18.8-0.2,26.5,16.7,23.3,36.9
				c-0.3,1.8-1.1,3.4-2.5,5.5c-11.2,20.3-39.6,61.3-75.4,107.7c-10.9,31.2-21.8,69.6-25.4,94.7c-1.3,8.8-1.8,15.5-0.9,20.1
				c41.6-50.4,106.1-137.4,155.4-142.1c16.6-1.6,31.9,27.5,28.8,45.5c-3.2,18.4-12,35.8-15.4,55.5c-4.3,25,2.1,134.3,37.2,152.9
				c8,4.2,17.2,7.2,27.6,9.2c30.3,5.7,69.9,2.5,111.6-6.2c-0.1-12.3,1.3-25.3,4.2-38.2c19.5-88.3,96.4-196.1,201.2-172.8
				c23.5,5.2,51.8,19.9,64.8,35.4c13-53.8,19.5-80.6,32.5-134.4c14.9-60.5,48.6-290.4,139.5-275.6c34,5.5,38.6,60,20.6,128.7
				c-31.1,118.7-114.2,237.7-153.2,334.9c-19,47.4-49.1,179.9-18.8,203c0.5,0.4,2,0.5,3.1,0.3c29.2-1.3,45.1-7.8,111.4-51.6
				c1.5-1.4,3.7-1.8,4.7-1.5c5,1.4,6.4,11.9,3.3,23c-1.9,6.9-4.7,13.5-10.3,18.4c-53.2,47.2-102.5,65.6-138.7,56.4
				c-36.6-9.2-42.3-51.3-27.9-141.5c-11.5,14.6-22.9,27-32.9,36c-65.6,59.3-112.3,77.1-144.7,70.1c-33.3-7.3-51.1-32.3-56.7-65.2
				c-56.2,14.7-109.6,22.2-146.7,15.4c-6.4-1.2-12.8-2.8-18.4-5.2C2930.3,1501.3,2949.7,1374.9,2923.8,1354.4z M2505.3,1274.7
				c4.4-13.9,7.9-28.3,9.3-42.9c4.9-51.3-13.1-101.6-64.5-105.4c-81.6-6-122.9,77.4-127,147.8c-3.5,59.9,16.3,118.7,51.2,119.1
				C2429,1393.9,2481.3,1320.1,2505.3,1274.7z M3432.7,1350.4c-3.4-12.7-21.2-30.2-49.4-35.5c-79.8-14.9-146.9,64.7-164,137.5
				c-2.8,11.8-3.6,24.2-2.7,34.9c72.8-20.5,159.9-50,209.7-110.6C3428.9,1366.3,3430.2,1361,3432.7,1350.4z M3221.8,1509.4
				c5.6,10.3,15.6,20.9,26.9,22.2c58.6,6.6,127.2-72.6,164-117.8C3356.6,1459.2,3288.1,1484.1,3221.8,1509.4z M3498.8,1293.9
				c54.1-88.2,92.4-182.6,119.6-279.7c8.4-30.2-3.2-46.5-6-46.1C3563.7,976.5,3519.7,1209.3,3498.8,1293.9z"/>
		</g>
	</g>
	<g>
		<g>
			<path fill="#80D1F5" d="M165.1,466c-0.2,2.9-0.3,4.3-0.5,7.1c38-19,78.3-35.2,120.3-42c20-3.3,73.5-8.4,76.4,19.8
				c1,10.2-11.2,17.5-20.7,18.9c-2.4,0.3-5.1,0.4-7.6-0.1c-20.3-3.1-41.2-0.9-60.8,2.5c-34.1,6-68.6,17-99.7,33.9
				c-2.8,1.5-5.3,3-7.9,4.1c3.6,37,7.3,74.2,15.7,110.4c0.9,3.9,2.1,7.4,2.9,11c28.8-33,75.3-51,117-57.6
				c17.3-2.7,35.3-4.4,53.1-2.8c8.1-1.2,12,3.8,12.8,9.7c0.7,5.4-1.4,6.8-9,7.9c-8,1.1-19.1,1.4-23.9,2.1
				c-56,11.5-113.7,29.3-141.2,84.2c2.8,15.1,6.1,30.2,9.7,45.1c5.3,22.4,11.3,44.7,17.6,66.9c54.2-19,111.4-39.6,165-49.8
				c4.2-0.8,18.5,1.3,19.4,7.8c0.2,1.7-0.2,3.5-2,5.7c-36.4,14.2-72,30.6-107.5,47.1c-35.3,16.4-71.9,39.4-108.6,48.4
				c-10.4,2.6-20.8-4.6-24.2-14.8c-5.4-16.4,15.1-27.3,26.8-32.7c1.5-0.7,2.3-1.1,3.8-1.8c-12.5-35.8-22.7-72.5-32-109.1
				c-13-51.2-23.7-103.3-30.4-155.9c-3.2,2.8-12.5,16.2-16.1,16.7c-8.1,1.1-20.2-9-21.4-15.8c-2.2-12.1,23.8-29.5,34.3-37
				c-0.5-3.4-0.6-6.6-0.6-9.8c-0.7-12,2.3-22.4,15.9-25.2C162.6,456.6,165.1,466,165.1,466z"/>
			<path fill="#80D1F5" d="M902.2,696.9c1.8,0.3,3.6,1.4,5,3.9c1.2,2.1,1.5,4.2,1.3,5.9c-0.7,4.8-5.2,8.5-5.2,8.5
				c-20.2,19-53.3,57-83.8,54.7c-32.8-2.4-27-69.1-26.2-89.3c-23.7,30.6-51.1,89.8-95.8,89.3c-50.4-0.6-65.3-58.3-65.4-100
				c0-8.5,0.5-16.8,1.8-24.5c-24.3-6.3-47.6-17.4-67-33.4c-3.2,33-10.1,66.3-19.6,98c-6.5,21.4-18.5,67-46,69.4
				c-51.6,4.5-72.2-100.1-75.7-136.5c-1.5-15.2-4.1-64.8,14.6-68c23.9-4,32.6,38.6,33.4,57c0.6,13.4-7.3,26.8-6.5,40
				c1.1,17.6,14.7,72.8,36.1,71.3c18.4-1.3,29.7-45.3,34.7-61.4c7.8-24.9,22.5-62.7,16.5-79.6c-3.9-11.2-22.4-33.6-23.7-50.7
				c-0.6-7.7,2.5-14.9,13-15.5c21.1-1.1,23.4,29.1,23.9,43.5c0.3,8.5-0.1,16.2,0.1,21.1c0,0.9,0,1.4,0.1,2.3
				c20.6,15.9,42.7,27.4,67.9,34c12.6-52.4,60.5-93,115.4-90.9c32.7,1.2,58.4,24.8,55.4,58.6c-0.1,1.1-0.5,2.2-0.6,3.1
				c3.7-2,7-3.1,10.8-2.8c4.4,0.4,15.4,2.9,14.4,9.9c-2.3,17-6.1,35.4-7.6,53c-1.2,14-7.3,62.7,14.8,64.5
				c20.3,1.6,42.7-21.1,58.2-33.6C896.4,698.7,899.1,696.5,902.2,696.9z M780.6,635.1c-28,14.9-61.6,18.4-92.4,18
				c-6.4-0.1-13.3-0.6-19.8-1.2c0,2.3-0.1,3.4-0.1,5.7c-0.3,19.9,1.2,64.2,30,64.5C737.4,722.5,762.9,661.9,780.6,635.1z M754,568.4
				c-41.7-2-77.8,35.7-84.5,74.7c5.6,0.7,11.2,0.8,16.4,0.9c24.8,0.3,96.3-2.2,100.5-37C789,586.6,775.4,569.4,754,568.4z"/>
			<path fill="#80D1F5" d="M943,533.6c4.2-15,20.9-29,23.8-46.8c2.2-13.7-6.2-28-18-34.7c-7.8-4.4-18.8-12.3-18.2-22.7
				c0.7-11.4,11.9-13.6,21.1-11.7c24,4.8,53.4,30.7,48.5,57.8c-3.5,19.9-27.1,64.7-49,63.9C945,539.2,942.3,536.3,943,533.6z"/>
			<path fill="#80D1F5" d="M1109.1,721.4c0.4-11.8-36.7-26.4-48.6-33.7c-20.4-12.6-49.8-32.4-44.7-60.5
				c6.3-34.7,36.6-63.1,73.3-54.8c6.5,1.5,13.3,4.2,20.3,7.9c2.1,1.1,3,2.7,2.5,3.8c-8.9,20.5-53.5,22.7-61.4,53.7
				c-0.1,0.6-0.2,0.8-0.3,1.4c-9.9,47.3,110.3,44.2,93.5,99.7c-7.9,26.3-52.5,40.5-75.2,49.2c-22.5,8.6-54.4,24.3-77.5,21.3
				c-7-0.9-16.1-4-12.7-17.5c4.6-18.4,46.6-25,62.6-30C1062.4,754.9,1108.5,741.3,1109.1,721.4z"/>
		</g>
	</g>
</g>
</svg>
