<?xml version="1.0" encoding="utf-8"?>
<!-- Generator: Adobe Illustrator 17.1.0, SVG Export Plug-In . SVG Version: 6.00 Build 0)  -->
<!DOCTYPE svg PUBLIC "-//W3C//DTD SVG 1.1//EN" "http://www.w3.org/Graphics/SVG/1.1/DTD/svg11.dtd">
<svg version="1.1"
	 id="svg2" inkscape:version="0.91 r13725" sodipodi:docname="moblogo.svg" xmlns:cc="http://creativecommons.org/ns#" xmlns:inkscape="http://www.inkscape.org/namespaces/inkscape" xmlns:sodipodi="http://sodipodi.sourceforge.net/DTD/sodipodi-0.dtd" xmlns:svg="http://www.w3.org/2000/svg" xmlns:rdf="http://www.w3.org/1999/02/22-rdf-syntax-ns#" xmlns:dc="http://purl.org/dc/elements/1.1/"
	 xmlns="http://www.w3.org/2000/svg" xmlns:xlink="http://www.w3.org/1999/xlink" x="0px" y="0px" viewBox="97.1 233.8 409.5 100"
	 enable-background="new 97.1 233.8 409.5 100" xml:space="preserve">
<sodipodi:namedview  id="namedview248" inkscape:window-height="841" inkscape:window-y="-8" inkscape:current-layer="Objects" inkscape:pageshadow="2" inkscape:window-x="74" inkscape:pageopacity="0" inkscape:window-width="1454" guidetolerance="10" bordercolor="#666666" showgrid="false" borderopacity="1" inkscape:zoom="0.12195951" pagecolor="#ffffff" inkscape:cx="3354.9203" objecttolerance="10" gridtolerance="10" inkscape:cy="3868.923" inkscape:window-maximized="1">
	</sodipodi:namedview>
<g id="Background" display="none">
</g>
<g id="Objects">
	<path id="path6" inkscape:connector-curvature="0" fill="#F69A9C" d="M471.1,243.1c-5.7,0.3-8.3,5.5-12.1,9.1
		c-0.6-6.2-2-12.5-7.1-16.3c-4.9-3.6-12.2-2.5-16,2.4c-3.9,5.1-3.7,13,0.8,17.7c4.8,5,13.2,6,19.2,2.8c0.2,0,0.4,0,0.6-0.1
		c1,2,3.3,3.5,5.1,4.4c2.6,1.2,5.5,1.9,8.4,1.9c6.1,0,11.9-4,11.9-11.1C481.9,247.8,476.9,242.8,471.1,243.1L471.1,243.1z"/>
	<path id="path8" inkscape:connector-curvature="0" fill="#F69A9C" d="M467.8,269.9c-2.6-4.5-6-8.2-9.9-11.4
		c-0.7-0.5-1.5-0.6-2.3-0.5c-0.2,0-0.3-0.1-0.5-0.1c-0.3-0.2-0.7-0.3-1.1-0.3c-4.4-0.3-9.4,2.2-12.9,4.9c-3.5,2.8-8.1,7.3-5.3,12.5
		c2.9,5.3,8.2,2.1,11.6-0.6c2.3-1.8,4.4-4,6.2-6.4c0.9,2.6,2.1,5.1,3.4,7.2c2.2,3.7,6.7,11.4,11.7,8.3
		C473.5,280.4,469.9,273.4,467.8,269.9z"/>
	<path id="path10" inkscape:connector-curvature="0" fill="#3C3C3B" d="M479.1,254.1c-0.2-5.4-4.4-9.8-9.5-9.3
		c-2.9,0.3-5.2,2.2-7.2,4.2c-2.4,2.2-4.5,4.7-6.3,7.5c0.2-3.2,0-6.4-0.6-9.6c-0.5-2.6-1.2-5.5-2.9-7.6c-3.5-4.5-9.8-3.1-13,1
		c-3.4,4.4-3.8,11.1,0.3,15.2c3,3,7.8,4.3,12,3.6c-1.8,0.8-3.6,1.6-5.4,2.5c-2.4,1.1-4.9,2.1-7,3.8c-2.8,2.3-4.6,7.2-1.3,9.9
		c3.2,2.7,7.4,0.5,9.8-2.3c2.9-3.4,5.6-7.7,6.9-12.3c0.2,3.7,0.8,7.5,2.2,10.9c0.9,2.2,2,4.3,3.5,6.2c1.1,1.4,2.5,3.3,4.3,3.4
		c3.6,0.4,3.9-5,3.6-7.6c-0.4-3.3-1.7-6.5-3.7-9c1.9,0.6,4,0.7,5.9,0.3C475.4,264,479.3,259.4,479.1,254.1L479.1,254.1z
		 M441.3,254.9c-4-3.7-3.7-10.1-0.2-14.1c3.7-4.3,9.7-3.6,12,1.8c1.8,4.5,2.2,9.8,1.9,14.7C450.7,258.9,444.8,258.1,441.3,254.9z
		 M439.5,274.7c-2.3-1.3-2.2-4.2-1-6.3c1.2-2.1,3.3-3.2,5.3-4.1c3.6-1.8,7.3-3.5,10.9-5.3c-1.5,3.6-3.3,7.1-5.4,10.3
		C447.2,272.5,443.6,277,439.5,274.7L439.5,274.7z M467.1,273c0.3,1.7,0.5,3.8-0.2,5.4c-1.2,3.1-3.7,0.7-5-0.8
		c-4.3-5.2-5.8-12.2-6.3-19c0.1,0,0.1-0.1,0.2-0.1c0.1-0.1,0.2-0.1,0.2-0.2c1.8,1.7,3.4,3.6,5.4,5c0,0.1,0.1,0.2,0.2,0.2
		C464.5,265.9,466.5,269.2,467.1,273z M469.5,263.9c-2.4,0.3-4.9-0.3-7-1.6c-2.2-1.3-3.8-3.5-5.8-5.3c0,0,0,0,0,0
		c1.4-1.7,2.8-3.4,4.3-5c1.9-1.9,4-4.1,6.4-5.2c5-2.3,10.2,1.8,10.4,7.4C478,259.3,474,263.3,469.5,263.9z"/>
	<path id="path12" inkscape:connector-curvature="0" fill="#3C3C3B" d="M456.9,238.7c-0.4-0.4-0.9,0.1-0.8,0.6
		c0.3,1.4,1.2,2.5,1.7,3.9c0.5,1.6,0.7,3.3,0.1,4.9c-0.2,0.6,0.5,1,0.8,0.4C460.2,245.5,459.3,241,456.9,238.7L456.9,238.7z"/>
	<path id="path14" inkscape:connector-curvature="0" fill="#3C3C3B" d="M468.3,240.9c-4.3-1.7-7.1,4.2-8.2,7.5
		c-0.2,0.5,0.6,1,0.8,0.4c1.5-3.8,3.1-6.9,7.3-7.3C468.4,241.6,468.6,241.1,468.3,240.9L468.3,240.9z"/>
	<path id="path16" inkscape:connector-curvature="0" fill="#3C3C3B" d="M453.1,254.6c-0.4-3.1-0.8-6.2-1.5-9.3
		c-0.3-1.6-0.9-3.1-2.3-3.8c-0.1-0.1-0.1-0.1-0.2-0.1c-0.1,0-0.1,0-0.2,0c0,0,0,0,0,0c0,0-0.1,0-0.1,0c-2.4-0.4-3.9,2.3-3.3,4.5
		c-0.5-0.2-1.1-0.2-1.7,0c-1.5,0.6-2.1,2.6-1.8,4.2c0.9,4.6,6.9,6.5,10.7,5.6c0.2-0.1,0.3-0.3,0.2-0.5
		C453.1,255,453.2,254.8,453.1,254.6L453.1,254.6z M445.5,252.9c-1.1-0.8-2.3-2-2.5-3.5c-0.3-2.3,2-3.5,3.4-1.8
		c0.1,0.1,0.2,0.1,0.3,0c0.3,0.1,0.6-0.4,0.3-0.7c-0.7-0.8-1-2.1-0.5-3.1c0.5-0.9,1.4-1.2,2.3-1.2c1.5,1.4,1.7,3.6,2,5.6
		c0.4,2.3,0.7,4.5,1.1,6.8c0,0,0,0,0,0C449.7,254.9,447.5,254.4,445.5,252.9L445.5,252.9z"/>
	<path id="path18" inkscape:connector-curvature="0" fill="#3C3C3B" d="M472.6,254.9c0.4-0.4,0.7-0.8,0.8-1.3
		c0.3-0.5,0.4-1.1,0.2-1.6c0.2-0.1,0.3-0.3,0.2-0.6c-0.9-2.6-3.9-3.4-6.2-2.7c-3.3,1-6,4.4-7.7,7.4c-0.1,0.2,0,0.4,0.2,0.4
		c-0.1,0.2-0.1,0.4,0.1,0.6c1.6,1.5,10.5,7.4,12.5,3.9C474.1,259.5,474.3,256.2,472.6,254.9z M460.7,256.3c-0.1,0-0.1,0-0.2-0.1
		c3.1-3.1,8.2-9.6,12.2-4.9c0,0.4,0,0.8-0.1,1.2c-0.1,0.1-0.1,0.3-0.2,0.4c-0.3,0.6-0.8,1-1.3,1.3c-0.7,0.3-0.4,1.3,0.2,1.3
		c0.6,0.7,1.1,1.2,1.3,2.2c0.1,0.6,0,1.3-0.3,1.8c0,0,0,0,0,0C468.6,261.7,463.8,258.3,460.7,256.3L460.7,256.3z"/>
	<path id="path20" inkscape:connector-curvature="0" fill="#F69A9C" d="M137.9,289.6c-4.1-3.8-10.7-2.9-14.5,0.8
		c-3.4,3.2-4.3,8-4.1,12.6c-2.7-3-6.2-5.6-9.7-6.8c-5.3-1.9-11,0.9-12.3,6.5c-1.2,5.1,1.8,10,6.5,12c5.1,2.2,10.6,0.9,15.5-1.3
		c0.4-0.2,0.8-0.4,1.1-0.7c6.1-0.6,13-2.4,17.3-7.2C141.6,301.1,142.4,293.8,137.9,289.6L137.9,289.6z"/>
	<path id="path22" inkscape:connector-curvature="0" fill="#F69A9C" d="M132.9,309c-3.8-0.5-11-1.5-13.5,2.1c-0.3,0-0.6,0.1-0.9,0.3
		c-1.9,0.3-3.6,1.6-3.7,3.7c-3.4,4.9-5.5,12.5-0.1,15.3c4.2,2.2,7.4-1.3,8.6-5c0.8-2.4,1-5.1,0.7-7.6c0.2,0,0.5,0,0.7,0
		c2.5,1.6,5.3,2.9,8,3.8c4.2,1.4,9.7,0.3,9.7-5.2C142.4,311,137.2,309.6,132.9,309L132.9,309z"/>
	<path id="path24" inkscape:connector-curvature="0" fill="#3C3C3B" d="M135.4,293.1c-2.8-3.4-7.8-4.1-11.1-1.1
		c-1.9,1.7-2.5,4.2-3,6.5c-0.6,2.7-0.8,5.4-0.8,8.1c-1.4-2.2-3.1-4.2-5.1-5.9c-1.6-1.5-3.5-2.9-5.7-3.5c-4.6-1.1-8.3,3.1-8.6,7.4
		c-0.2,4.7,2.7,9.2,7.6,9.8c3.6,0.4,7.5-1.3,10.1-3.9c-0.9,1.5-1.7,3-2.6,4.5c-1.1,2-2.4,3.9-3.1,6.1c-0.8,2.9,0.3,7.1,3.9,7.2
		c3.6,0.1,5.4-3.5,5.8-6.6c0.4-3.7,0.2-8-1.1-11.6c1.9,2.4,4.2,4.4,6.8,6c1.7,1,3.5,1.8,5.4,2.2c1.4,0.3,3.3,0.8,4.7,0
		c2.7-1.6,0.3-5.3-1.2-6.8c-1.9-2-4.3-3.3-7-3.9c1.6-0.6,3.1-1.6,4.3-2.9C137.7,301.5,138.2,296.4,135.4,293.1L135.4,293.1z
		 M109.4,313.3c-4.6-0.3-7.5-4.6-7-9.1c0.5-4.7,5-7.4,9.3-5c3.5,2,6.3,5.3,8.5,8.6C117.9,311,113.3,313.6,109.4,313.3z M117.8,327.2
		c-2.2,0.4-3.6-1.6-3.8-3.5c-0.2-2,0.8-3.8,1.7-5.5c1.7-3,3.4-6.1,5.1-9.1c0.7,3.1,1.2,6.3,1.2,9.6
		C122.1,321.7,121.8,326.5,117.8,327.2L117.8,327.2z M136.3,311.7c1,1,2.2,2.2,2.5,3.6c0.7,2.7-2.2,2.4-3.8,2.1
		c-5.6-1.2-10-5-13.7-9.1c0-0.1,0.1-0.1,0.1-0.2c0.1-0.1,0.1-0.2,0-0.3c2.1,0.2,4.1,0.6,6.2,0.5c0.1,0,0.1,0.1,0.2,0.1
		C131,308.4,134,309.5,136.3,311.7L136.3,311.7z M133.5,304.5c-1.5,1.5-3.6,2.3-5.6,2.6c-2.2,0.3-4.4-0.3-6.6-0.5c0,0,0,0,0,0
		c0.1-1.8,0.3-3.7,0.6-5.5c0.4-2.2,0.8-4.8,1.9-6.7c2.4-4.1,8-4.2,10.9-0.6C137.2,297,136.3,301.7,133.5,304.5z"/>
	<path id="path26" inkscape:connector-curvature="0" fill="#3C3C3B" d="M112.4,294.6c-0.5,0-0.6,0.5-0.3,0.8c0.9,0.7,2.1,1,3,1.7
		c1.2,0.8,2.1,1.8,2.4,3.1c0.1,0.5,0.8,0.4,0.8-0.1C118,297.3,115.2,294.9,112.4,294.6L112.4,294.6z"/>
	<path id="path28" inkscape:connector-curvature="0" fill="#3C3C3B" d="M121.5,290.1c-3.8,1.1-2.9,6.4-2,9.2
		c0.1,0.5,0.9,0.3,0.7-0.1c-0.8-3.2-1.2-6.1,1.5-8.6C121.9,290.4,121.7,290,121.5,290.1z"/>
	<path id="path30" inkscape:connector-curvature="0" fill="#3C3C3B" d="M117.5,306.9c-1.8-1.8-3.6-3.6-5.5-5.3
		c-1-0.9-2.2-1.6-3.5-1.3c-0.1,0-0.1,0-0.2,0c-0.1,0-0.1,0-0.1,0.1c0,0,0,0,0,0c0,0,0,0-0.1,0c-1.9,1-1.6,3.6-0.1,4.7
		c-0.5,0.2-0.9,0.5-1.2,0.9c-0.8,1.2-0.2,2.8,0.8,3.6c2.9,2.5,8,0.7,10.2-1.9c0.1-0.2,0-0.3-0.1-0.4
		C117.7,307.3,117.7,307.1,117.5,306.9L117.5,306.9z M111.4,309.8c-1.2,0-2.6-0.1-3.5-1c-1.3-1.3-0.4-3.3,1.5-3
		c0.1,0,0.2-0.1,0.2-0.2c0.3-0.1,0.2-0.6-0.1-0.7c-0.9-0.2-1.7-0.9-1.9-1.8c-0.1-0.9,0.4-1.5,1-2c1.7,0.1,2.9,1.5,4.2,2.6
		c1.4,1.3,2.7,2.6,4.1,3.8c0,0,0,0,0,0C115.3,308.9,113.5,309.7,111.4,309.8z"/>
	<path id="path32" inkscape:connector-curvature="0" fill="#3C3C3B" d="M131.3,297.2c0.1-0.4,0.1-0.9-0.1-1.3
		c-0.1-0.5-0.3-0.9-0.6-1.2c0.1-0.1,0.1-0.3-0.1-0.5c-1.9-1.3-4.4-0.2-5.7,1.5c-1.8,2.4-2.1,6-1.8,8.9c0,0.2,0.2,0.2,0.4,0.2
		c0,0.2,0.1,0.3,0.3,0.3c1.9,0.1,10.9-0.6,10.6-4C134.6,299.4,133.1,297.2,131.3,297.2L131.3,297.2z M123.6,304.4
		c-0.1,0-0.1,0-0.1,0c0.6-3.6,1-10.5,6.2-9.6c0.2,0.3,0.4,0.6,0.5,0.9c0,0.1,0,0.2,0.1,0.4c0,0.5-0.1,1.1-0.3,1.5
		c-0.3,0.6,0.3,1.1,0.8,0.8c0.8,0.1,1.4,0.2,2,0.7c0.4,0.4,0.6,0.8,0.7,1.3c0,0,0,0,0,0C131.8,303.7,126.7,304,123.6,304.4
		L123.6,304.4z"/>
	<g id="g222">
		<g id="g224">
			<path id="path226" fill="#80D1F5" d="M160.6,263c-16.8,3.3-32.7,9.7-48.2,16.9c-0.6,0.3-1.2,0.5-1.7,0.7c-3.2,0.9-4.6-1.1-5-2.4
				c-0.5-1.6-0.4-4.2,0.3-4.5c12.9-5.8,26.3-10.8,40-13.6c8.9-1.8,28-5.5,30.9-1.7c0.4,0.5-0.7,2.4-2.1,2.6c-2,0.3-5.5,0.6-9.4,1.2
				C164,262.4,162.3,262.7,160.6,263z M144.8,271.2c2.7-0.6,3.5,1.7,4.3,5.2c0.3,1.3,0.5,2.6,0.6,3.2c3.4,15.6,9.2,31.4,13.6,44.8
				c0.8,2.4-1.2,4.8-4.1,5.4c-1.9,0.4-5.2-6.1-6.2-8.1c-5.3-11.7-7.6-24.9-10.4-37.3c-0.8-3.4-2.4-11.2,0.4-12.5
				C143.6,271.5,144.2,271.3,144.8,271.2z"/>
			<path id="path228" fill="#80D1F5" d="M211.2,299.9c0-0.6-0.1-1.5-0.2-2.7c-5.2,9.7-12.8,24.8-23.1,26.7
				c-7.1,1.4-10.2-10.3-11.2-16.2c-1-5.9-2.5-17,4.5-18.2c3.4-0.6,3.8,1.3,4.2,3.6c0.3,1.7-0.1,3.7-0.9,5.3
				c-0.8,1.9-1.2,7.9-0.2,13.1c0.8,4.7,2.9,8.9,5.9,8.2c9.3-2.2,16.7-15.6,20.6-24.3c-0.4-5.8-0.7-14.6,2.4-16.1
				c0.5-0.2,1-0.4,1.5-0.5c2.6-0.3,4.9,1.5,5.1,3.2c0.4,3-1.6,4.5-2.8,7c0,0.5,0,0.7-0.1,1.2c-0.2,3.7-0.3,5.8,0.2,9.8
				c0.2,1.4,0.4,2.9,0.8,4.4c2.5-6.9,6.6-18,13.2-19.7c3.1-0.8,4.8,7.3,5,10c0.3,2.7,3.3,14.5,7.5,14.1c5.2-0.5,9.2-7,11-7.1
				c0.2,0,0.4,0.1,0.5,0.2c0.1,0.1,0.2,0.3,0.3,0.5c0.2,2.8-8,11.6-13.2,11.8c-8.1,0.4-11.8-10.7-13.7-17.1
				c-0.2-0.3-0.5-1.5-0.7-1.4c-3.4,0.4-7.5,13-8.3,15c-0.5,1.4-0.1,7.7,0,8.9c0,0.4-0.4,0.7-1,0.7c-1.8,0.2-5.4-0.9-5.6-3
				C212.3,310.3,211.7,306.8,211.2,299.9z M181.6,275.7c-2.8,0.5-5.8-0.3-6.4-3.4c-0.4-2.1,0.4-3.9,4-4.5c2.7-0.5,6.7-0.7,7.5,3.6
				C187,273.5,184.4,275.3,181.6,275.7z"/>
			<path id="path230" fill="#80D1F5" d="M282.7,306.4c-4.4,3.9-7.9,5.8-10.6,5.8c-9.9-0.1-10-20.2-12.1-24.6c-0.3-0.7-2-2.9-2.2-5
				c-0.2-2.6,1.1-5.3,6-5.6c4.4-0.3,3.9,5.8,4.2,7.2c0,0.2-0.3,3.8,0,8.1c0.4,6.6,1.9,14.6,7,14.4c2-0.1,6.5-1.9,7.8-4.5
				c2-4.1-1.9-25.5,7-26.5c2.4-0.3,3.5,1.7,3.5,4.7c0,8.6-3.6,16.8-5.9,25.1c0,0-3.8,23.4-18.6,25.7S278.9,323.8,282.7,306.4z"/>
			<path id="path232" fill="#80D1F5" d="M307.9,306.3c0.3-8.3,0.4-15.2,0.4-20.7c-0.1-8.5-0.5-17.2-1.9-25.5
				c-0.5-3.1-1.6-6.2-1.6-9.3c0-3.4,2.5-3.7,3.5-3.7c4.6,0,5.5,6.3,5.5,8c0.8,7.2,0.9,14.4,0.9,21.6c0,9.7-0.7,19.6-1.6,29.3
				c2.1-0.1,4.5-0.1,7.1-0.1c5.2,0.1,11,0.4,16.7,1.3c8,1.2,9.2,4.3,9.2,4.3c0.1,0.3,0.2,0.7,0.2,1.1c0,0.8-0.4,2.1-2.4,2
				c-0.1,0-0.2,0-0.3,0c-8.4-1.6-16.7-3.5-25.2-4.7c-1.3-0.2-2.4-0.2-3.5-0.2c-4.7,0-5.9,1.5-7.8,1.5c-2.3,0-3.3-1.2-3.3-4.3
				C303.9,306.8,305.4,306.5,307.9,306.3z"/>
			<path id="path234" fill="#80D1F5" d="M425.6,303.1c0,0-0.3,0-0.4,0.1c-4.1,2.3-9.8,8.9-11.2,10.9c-0.9,1.2-2,6.4-2.3,7.6
				c-0.1,0.4-0.5,0.5-1.2,0.4c-1.8-0.3-4.9-2.3-4.6-4.5c0.9-5.4,1.5-8.9,2.2-13.2c-4.7,5.3-11.9,13-19.1,12.7
				c-3.7-0.2-6.9-4.5-8.1-14.3c-4.4,5.3-9.9,12.9-17.4,12.6c-9.1-0.5-12.8-11.2-12.4-19.2c0.6-10.7,8.2-23.5,20.4-22.5
				c7.6,0.6,10.6,8.5,10,14.4c-0.1,0.6-0.2,1.1-0.3,1.7c1.8-2.3,3.4-3.9,4.9-3.7c0.8,0.1,1.5,1.7,1.5,1.7
				c-0.8,7.4-0.7,24.3,4.4,25.2c4.5,0.8,12.3-7.8,16.9-13.2c1.9-7.4,6.7-22.9,14.2-23c2.1,0,3,1.9,2.6,4.2c0,0.2-0.1,0.4-0.3,0.6
				c-1.3,2.3-4.5,6.9-8.5,12.2c-1.2,3.5-2.5,7.9-2.9,10.7c-0.1,1-0.2,1.7-0.1,2.3c4.7-5.7,12-15.5,17.5-16c1.9-0.2,3.6,3.1,3.2,5.1
				c-0.4,2.1-1.4,4-1.7,6.3c-0.5,2.8,0.2,15.2,4.2,17.2c0.9,0.5,1.9,0.8,3.1,1c3.4,0.6,7.9,0.3,12.6-0.7c0-1.4,0.1-2.9,0.5-4.3
				c2.2-10,10.9-22.1,22.7-19.5c2.7,0.6,5.8,2.2,7.3,4c1.5-6.1,2.2-9.1,3.7-15.2c1.7-6.8,5.5-32.8,15.7-31.1
				c3.8,0.6,4.4,6.8,2.3,14.5c-3.5,13.4-12.9,26.8-17.3,37.8c-2.1,5.3-5.5,20.3-2.1,22.9c0.1,0,0.2,0.1,0.3,0
				c3.3-0.1,5.1-0.9,12.6-5.8c0.2-0.2,0.4-0.2,0.5-0.2c0.6,0.2,0.7,1.3,0.4,2.6c-0.2,0.8-0.5,1.5-1.2,2.1c-6,5.3-11.6,7.4-15.6,6.4
				c-4.1-1-4.8-5.8-3.1-16c-1.3,1.6-2.6,3-3.7,4.1c-7.4,6.7-12.7,8.7-16.3,7.9c-3.8-0.8-5.8-3.6-6.4-7.4c-6.3,1.7-12.4,2.5-16.5,1.7
				c-0.7-0.1-1.4-0.3-2.1-0.6C426.4,319.6,428.6,305.4,425.6,303.1z M378.4,294.1c0.5-1.6,0.9-3.2,1-4.8c0.6-5.8-1.5-11.5-7.3-11.9
				c-9.2-0.7-13.9,8.7-14.3,16.7c-0.4,6.8,1.8,13.4,5.8,13.4C369.8,307.5,375.7,299.2,378.4,294.1z M483,302.6
				c-0.4-1.4-2.4-3.4-5.6-4c-9-1.7-16.6,7.3-18.5,15.5c-0.3,1.3-0.4,2.7-0.3,3.9c8.2-2.3,18-5.6,23.7-12.5
				C482.6,304.4,482.8,303.8,483,302.6z M459.2,320.5c0.6,1.2,1.8,2.4,3,2.5c6.6,0.7,14.4-8.2,18.5-13.3
				C474.5,314.9,466.7,317.7,459.2,320.5z M490.5,296.2c6.1-10,10.4-20.6,13.5-31.6c0.9-3.4-0.4-5.2-0.7-5.2
				C497.8,260.4,492.9,286.7,490.5,296.2z"/>
		</g>
	</g>
</g>
</svg>
